<svg width="78" height="78" viewBox="0 0 78 78" fill="none" xmlns="http://www.w3.org/2000/svg">
<circle cx="39" cy="39" r="39" fill="#EFEFEF"/>
<path d="M58.5 56.875V52.125C58.5 49.6054 57.4991 47.1891 55.7175 45.4075C53.9359 43.6259 51.5196 42.625 49 42.625H30C27.4804 42.625 25.0641 43.6259 23.2825 45.4075C21.5009 47.1891 20.5 49.6054 20.5 52.125V56.875" stroke="#888888" stroke-width="3" stroke-linecap="round" stroke-linejoin="round"/>
<path d="M39.5 34.8013C44.7467 34.8013 49 30.548 49 25.3013C49 20.0546 44.7467 15.8013 39.5 15.8013C34.2533 15.8013 30 20.0546 30 25.3013C30 30.548 34.2533 34.8013 39.5 34.8013Z" stroke="#888888" stroke-width="3" stroke-linecap="round" stroke-linejoin="round"/>
</svg>
