<svg width="24" height="28" viewBox="0 0 24 28" fill="none" xmlns="http://www.w3.org/2000/svg">
<path d="M1.38085 20.8037H2.73396V26.5161C2.73396 26.6711 2.79553 26.8198 2.90512 26.9293C3.01471 27.0389 3.16335 27.1005 3.31833 27.1005H8.16203C8.31702 27.1005 8.46565 27.0389 8.57524 26.9293C8.68483 26.8198 8.7464 26.6711 8.7464 26.5161V20.8037H10.0995C10.2545 20.8037 10.4031 20.7421 10.5127 20.6325C10.6223 20.523 10.6839 20.3743 10.6839 20.2193L10.6839 16.8287L10.6839 16.8286C10.6831 16.1601 10.4171 15.5191 9.9444 15.0464C9.47166 14.5736 8.83071 14.3077 8.16215 14.3069H8.16203H8.1144C8.42481 13.9072 8.63007 13.4347 8.70949 12.9325C8.80027 12.3585 8.72276 11.7706 8.48633 11.2397C8.2499 10.7089 7.86469 10.258 7.37731 9.94152C6.88993 9.62506 6.32129 9.45664 5.74018 9.45664C5.15908 9.45664 4.59043 9.62506 4.10306 9.94152C3.61568 10.258 3.23047 10.7089 2.99404 11.2397C2.75761 11.7706 2.68009 12.3585 2.77088 12.9325C2.8503 13.4347 3.05555 13.9072 3.36597 14.3069H3.31833H3.31821C2.64966 14.3077 2.00871 14.5736 1.53597 15.0464C1.06322 15.5191 0.797285 16.1601 0.796484 16.8286V16.8287V20.2193C0.796484 20.3743 0.858052 20.523 0.967642 20.6325C1.07723 20.7421 1.22587 20.8037 1.38085 20.8037ZM5.25581 20.6037C5.20058 20.6037 5.15581 20.6485 5.15581 20.7037V25.9318H3.9027V16.8287C3.9027 16.7735 3.85793 16.7287 3.8027 16.7287H2.83396C2.77874 16.7287 2.73396 16.7735 2.73396 16.8287V19.635H1.96522V16.8287C1.96522 16.4699 2.10778 16.1257 2.36154 15.8719C2.6153 15.6182 2.95947 15.4756 3.31833 15.4756H8.16203C8.5209 15.4756 8.86507 15.6182 9.11882 15.8719C9.37258 16.1257 9.51514 16.4699 9.51514 16.8287V19.635H8.7464V16.8287C8.7464 16.7735 8.70163 16.7287 8.6464 16.7287H7.67766C7.62243 16.7287 7.57766 16.7735 7.57766 16.8287V25.9318H6.32455V20.7037C6.32455 20.6485 6.27978 20.6037 6.22455 20.6037H5.25581ZM3.9027 12.4694C3.9027 12.106 4.01047 11.7507 4.21237 11.4486C4.41428 11.1464 4.70125 10.9109 5.03701 10.7718C5.37277 10.6327 5.74222 10.5963 6.09866 10.6672C6.45509 10.7381 6.7825 10.9131 7.03948 11.1701C7.29645 11.4271 7.47146 11.7545 7.54236 12.1109C7.61326 12.4674 7.57687 12.8368 7.43779 13.1726C7.29872 13.5083 7.0632 13.7953 6.76103 13.9972C6.45886 14.1991 6.1036 14.3069 5.74018 14.3069C5.25285 14.3069 4.78548 14.1133 4.44089 13.7687C4.09629 13.4241 3.9027 12.9567 3.9027 12.4694Z" fill="#686868" stroke="#686868" stroke-width="0.2" stroke-linejoin="round"/>
<path d="M21.0787 14.3069H21.0785H21.0309C21.3413 13.9072 21.5466 13.4347 21.626 12.9325C21.7168 12.3585 21.6393 11.7706 21.4028 11.2397C21.1664 10.7089 20.7812 10.258 20.2938 9.94152C19.8064 9.62506 19.2378 9.45664 18.6567 9.45664C18.0756 9.45664 17.5069 9.62506 17.0196 9.94152C16.5322 10.258 16.147 10.7089 15.9105 11.2397C15.6741 11.7706 15.5966 12.3585 15.6874 12.9325C15.7668 13.4347 15.9721 13.9072 16.2825 14.3069H16.2348H16.2347C15.5662 14.3077 14.9252 14.5736 14.4525 15.0464C13.9797 15.5191 13.7138 16.1601 13.713 16.8286V16.8287V20.2193C13.713 20.3743 13.7746 20.523 13.8841 20.6325C13.9937 20.7421 14.1424 20.8037 14.2974 20.8037H15.6505V26.5161C15.6505 26.6711 15.712 26.8198 15.8216 26.9293C15.9312 27.0389 16.0799 27.1005 16.2348 27.1005H21.0785C21.2335 27.1005 21.3822 27.0389 21.4917 26.9293C21.6013 26.8198 21.6629 26.6711 21.6629 26.5161V20.8037H23.016C23.171 20.8037 23.3196 20.7421 23.4292 20.6325C23.5388 20.523 23.6004 20.3743 23.6004 20.2193V16.8287V16.8286C23.5996 16.1601 23.3336 15.5191 22.8609 15.0464C22.3882 14.5736 21.7472 14.3077 21.0787 14.3069ZM15.6505 16.8287V19.635H14.8817V16.8287C14.8817 16.4699 15.0243 16.1257 15.278 15.8719C15.5318 15.6182 15.876 15.4756 16.2348 15.4756H21.0785C21.4374 15.4756 21.7816 15.6182 22.0353 15.8719C22.2891 16.1257 22.4316 16.4699 22.4316 16.8287V19.635H21.6629V16.8287C21.6629 16.7735 21.6181 16.7287 21.5629 16.7287H20.5942C20.5389 16.7287 20.4942 16.7735 20.4942 16.8287V25.9318H19.2411V20.7037C19.2411 20.6485 19.1963 20.6037 19.1411 20.6037H18.1723C18.1171 20.6037 18.0723 20.6485 18.0723 20.7037V25.9318H16.8192V16.8287C16.8192 16.7735 16.7744 16.7287 16.7192 16.7287H15.7505C15.6952 16.7287 15.6505 16.7735 15.6505 16.8287ZM16.8192 12.4694C16.8192 12.106 16.927 11.7507 17.1289 11.4486C17.3308 11.1464 17.6178 10.9109 17.9535 10.7718C18.2893 10.6327 18.6587 10.5963 19.0152 10.6672C19.3716 10.7381 19.699 10.9131 19.956 11.1701C20.213 11.4271 20.388 11.7545 20.4589 12.1109C20.5298 12.4674 20.4934 12.8368 20.3543 13.1726C20.2152 13.5083 19.9797 13.7953 19.6775 13.9972C19.3754 14.1991 19.0201 14.3069 18.6567 14.3069C18.1694 14.3069 17.702 14.1133 17.3574 13.7687C17.0128 13.4241 16.8192 12.9567 16.8192 12.4694Z" fill="#686868" stroke="#686868" stroke-width="0.2" stroke-linejoin="round"/>
<path d="M18.6606 4.00009V5.26891L16.9169 3.43447L15.8417 4.5657L18.8834 7.76577C19.026 7.91575 19.2194 8 19.4211 8C19.6227 8 19.8161 7.91575 19.9587 7.76577L23.0005 4.5657L21.9252 3.43447L20.1815 5.26891V4.00009C20.1803 2.93959 19.7793 1.92289 19.0665 1.173C18.3537 0.423115 17.3873 0.00127031 16.3793 0H11.0005V1.60003H16.3793C16.9843 1.60003 17.5646 1.8529 17.9924 2.30299C18.4203 2.75309 18.6606 3.36355 18.6606 4.00009Z" fill="#686868"/>
<path d="M18.6606 4.00009V5.26891L16.9169 3.43447L15.8417 4.5657L18.8834 7.76577C19.026 7.91575 19.2194 8 19.4211 8C19.6227 8 19.8161 7.91575 19.9587 7.76577L23.0005 4.5657L21.9252 3.43447L20.1815 5.26891V4.00009C20.1803 2.93959 19.7793 1.92289 19.0665 1.173C18.3537 0.423115 17.3873 0.00127031 16.3793 0H11.0005V1.60003H16.3793C16.9843 1.60003 17.5646 1.8529 17.9924 2.30299C18.4203 2.75309 18.6606 3.36355 18.6606 4.00009Z" stroke="#686868"/>
<path d="M6.50049 4C6.50049 3.36348 6.73754 2.75303 7.1595 2.30294C7.58145 1.85286 8.15375 1.6 8.75049 1.6H14.0005V0H8.75049C7.75629 0.00127029 6.80316 0.423106 6.10015 1.17298C5.39715 1.92285 5.00168 2.93952 5.00049 4V8H6.50049V4Z" fill="#686868"/>
<path d="M6.50049 4C6.50049 3.36348 6.73754 2.75303 7.1595 2.30294C7.58145 1.85286 8.15375 1.6 8.75049 1.6H14.0005V0H8.75049C7.75629 0.00127029 6.80316 0.423106 6.10015 1.17298C5.39715 1.92285 5.00168 2.93952 5.00049 4V8H6.50049V4Z" stroke="#686868"/>
</svg>
