<svg width="56" height="56" viewBox="0 0 56 56" fill="none" xmlns="http://www.w3.org/2000/svg">
<g opacity="0.2">
<path fill-rule="evenodd" clip-rule="evenodd" d="M25.7276 10.4752C29.6237 12.8511 34.3468 13.3781 38.6573 11.9177L42.2865 10.6882L39.2797 19.8556C39.0221 20.641 39.0469 21.4937 39.3493 22.2623L42.8804 31.2346L37.2052 33.1573C34.1663 34.1867 30.8366 33.8153 28.0899 32.1402C23.7342 29.4839 18.392 29.1624 13.7756 31.2425V16.3322V11.6242C13.7756 11.1033 14.0651 10.6272 14.5235 10.3942C18.1206 8.56628 22.1763 8.30959 25.7276 10.4752ZM9.18408 16.3322V11.6242C9.18408 9.33575 10.4562 7.24368 12.4701 6.22026C17.4649 3.68196 23.2004 3.49189 28.0899 6.47356C30.8366 8.14859 34.1663 8.52008 37.2052 7.49055L44.7546 4.93289C46.729 4.26406 48.6072 6.17298 47.949 8.17949L43.7686 20.9259L47.9574 31.5692C48.497 32.9405 47.7896 34.4903 46.4113 34.9574L38.6573 37.5843C34.3468 39.0447 29.6237 38.5179 25.7276 36.1418C22.5105 34.18 18.5304 34.0248 15.1748 35.73L13.7756 36.441V48.999C13.7756 50.2877 12.7477 51.3323 11.4798 51.3323C10.2119 51.3323 9.18408 50.2877 9.18408 48.999V38.7743V34.999V16.3322Z" fill="#FF1900"/>
</g>
</svg>
