<svg width="18" height="18" viewBox="0 0 18 18" fill="none" xmlns="http://www.w3.org/2000/svg">
<path d="M3.09375 5.0625H14.9062" stroke="#D10B26" stroke-width="1.5" stroke-linecap="round" stroke-linejoin="round"/>
<path d="M13.5942 5.0625V14.25C13.5942 14.5981 13.456 14.9319 13.2098 15.1781C12.9637 15.4242 12.6298 15.5625 12.2817 15.5625H5.71924C5.37114 15.5625 5.0373 15.4242 4.79116 15.1781C4.54502 14.9319 4.40674 14.5981 4.40674 14.25V5.0625M6.37549 5.0625V3.75C6.37549 3.4019 6.51377 3.06806 6.75991 2.82192C7.00605 2.57578 7.33989 2.4375 7.68799 2.4375H10.313C10.6611 2.4375 10.9949 2.57578 11.2411 2.82192C11.4872 3.06806 11.6255 3.4019 11.6255 3.75V5.0625" stroke="#D10B26" stroke-width="1.5" stroke-linecap="round" stroke-linejoin="round"/>
</svg>
