<svg width="7" height="11" viewBox="0 0 7 11" fill="none" xmlns="http://www.w3.org/2000/svg">
<path d="M6.00413 5.43394L2.04433 1.18671C1.91306 1.0459 1.73501 0.966801 1.54936 0.966801C1.36371 0.966801 1.18566 1.0459 1.05438 1.18671C0.923107 1.32751 0.849357 1.51848 0.849357 1.71761C0.849356 1.91674 0.923106 2.10771 1.05438 2.24852L4.5192 5.96484L1.05438 9.68117C0.923106 9.82198 0.849356 10.0129 0.849357 10.2121C0.849357 10.4112 0.923107 10.6022 1.05438 10.743C1.18566 10.8838 1.36371 10.9629 1.54936 10.9629C1.73501 10.9629 1.91306 10.8838 2.04433 10.743L6.00413 6.49575C6.13541 6.35494 6.20915 6.16397 6.20915 5.96484C6.20915 5.76572 6.13541 5.57474 6.00413 5.43394Z" fill="#444444"/>
</svg>
