<svg width="60" height="60" viewBox="0 0 60 60" fill="none" xmlns="http://www.w3.org/2000/svg">
<g opacity="0.3">
<path fill-rule="evenodd" clip-rule="evenodd" d="M45.9711 10.1939C51.1255 13.197 54.7499 19.294 54.5903 26.4082C54.3913 35.2856 47.4801 43.1187 35.7031 50.1145C33.9569 51.1517 32.1163 52.4985 29.998 52.4985C27.9197 52.4985 25.9999 51.1286 24.2928 50.1145C12.5159 43.1187 5.60467 35.2856 5.40558 26.4082C5.24604 19.294 8.87035 13.197 14.0247 10.1939C18.8458 7.38504 24.9017 7.36997 29.998 11.5153C35.0943 7.36997 41.1502 7.38504 45.9711 10.1939ZM43.4946 14.4446C40.0664 12.4472 35.7816 12.5183 32.0708 16.2704C30.9329 17.4209 29.063 17.4209 27.9251 16.2704C24.2144 12.5183 19.9295 12.4472 16.5013 14.4446C12.9484 16.5146 10.203 20.9091 10.3238 26.2977C10.4624 32.4766 15.3407 39.0746 26.8052 45.8849C27.8086 46.4809 28.8571 47.2471 29.998 47.564C31.1388 47.2471 32.1874 46.4809 33.1907 45.8849C44.6554 39.0746 49.5335 32.4766 49.672 26.2977C49.793 20.9091 47.0475 16.5146 43.4946 14.4446Z" fill="#FF6E00"/>
</g>
</svg>
