<svg width="7" height="11" viewBox="0 0 7 11" fill="none" xmlns="http://www.w3.org/2000/svg">
<path d="M0.99587 5.43394L4.95567 1.18671C5.08694 1.0459 5.26499 0.966801 5.45064 0.966801C5.63629 0.966801 5.81434 1.0459 5.94562 1.18671C6.07689 1.32751 6.15064 1.51848 6.15064 1.71761C6.15064 1.91674 6.07689 2.10771 5.94562 2.24852L2.4808 5.96484L5.94562 9.68117C6.07689 9.82198 6.15064 10.0129 6.15064 10.2121C6.15064 10.4112 6.07689 10.6022 5.94562 10.743C5.81434 10.8838 5.63629 10.9629 5.45064 10.9629C5.26499 10.9629 5.08694 10.8838 4.95567 10.743L0.99587 6.49575C0.864595 6.35494 0.790845 6.16397 0.790845 5.96484C0.790845 5.76572 0.864595 5.57474 0.99587 5.43394Z" fill="#444444"/>
</svg>
