<svg width="24" height="25" viewBox="0 0 24 25" fill="none" xmlns="http://www.w3.org/2000/svg">
<path fill-rule="evenodd" clip-rule="evenodd" d="M10.8 2.97866C11.5111 2.44266 12.4889 2.44266 13.2 2.97866L20.2 8.25491C20.7036 8.63451 21 9.23025 21 9.86291V19.4104C21 20.5205 20.1046 21.4204 19 21.4204H14.1C13.4925 21.4204 13 20.9254 13 20.3149V14.3854C13 13.8303 12.5523 13.3804 12 13.3804C11.4477 13.3804 11 13.8303 11 14.3854V20.3149C11 20.9254 10.5075 21.4204 9.9 21.4204H5C3.89543 21.4204 3 20.5205 3 19.4104V9.86291C3 9.23025 3.29639 8.63451 3.8 8.25491L10.8 2.97866ZM12 4.58666L5 9.86291V19.4104H9V14.3854C9 12.7202 10.3431 11.3704 12 11.3704C13.6569 11.3704 15 12.7202 15 14.3854V19.4104H19V9.86291L12 4.58666Z" fill="#686868"/>
</svg>
