<svg width="51" height="61" viewBox="0 0 51 61" fill="none" xmlns="http://www.w3.org/2000/svg">
<g opacity="0.3">
<path d="M16.4404 32.465H16.2933C16.9902 31.5794 17.4507 30.5281 17.6275 29.4102C17.8271 28.1483 17.6567 26.8556 17.1369 25.6885C16.6171 24.5215 15.7701 23.5301 14.6986 22.8343C13.6271 22.1385 12.3769 21.7683 11.0993 21.7683C9.82167 21.7683 8.57145 22.1385 7.49992 22.8343C6.42839 23.5301 5.58147 24.5215 5.06166 25.6885C4.54185 26.8556 4.37143 28.1483 4.57102 29.4102C4.74784 30.5281 5.20833 31.5794 5.90528 32.465H5.7581H5.75786C4.28885 32.4668 2.88052 33.0511 1.84178 34.0899C0.803031 35.1286 0.218691 36.537 0.216931 38.006V38.0062V45.4839C0.216931 45.8202 0.350548 46.1428 0.588388 46.3806C0.826228 46.6185 1.14881 46.7521 1.48516 46.7521H4.48987V59.3709C4.48987 59.7072 4.62348 60.0298 4.86132 60.2677C5.09916 60.5055 5.42174 60.6391 5.7581 60.6391H16.4404C16.7768 60.6391 17.0994 60.5055 17.3372 60.2677C17.5751 60.0298 17.7087 59.7072 17.7087 59.3709V46.7521H20.7134C21.0497 46.7521 21.3723 46.6185 21.6101 46.3806C21.848 46.1428 21.9816 45.8202 21.9816 45.4839V38.0062V38.006C21.9798 36.537 21.3955 35.1286 20.3568 34.0899C19.318 33.0511 17.9097 32.4668 16.4407 32.465H16.4404ZM10.031 46.3521C9.92058 46.3521 9.83103 46.4416 9.83103 46.5521V58.1027H7.02633V38.0062C7.02633 37.8958 6.93679 37.8062 6.82633 37.8062H4.68987C4.57941 37.8062 4.48987 37.8958 4.48987 38.0062V44.2156H2.7534V38.0062C2.7534 37.2093 3.06996 36.4451 3.63346 35.8816C4.19695 35.3181 4.9612 35.0015 5.7581 35.0015H16.4404C17.2373 35.0015 18.0016 35.3181 18.5651 35.8816C19.1286 36.4451 19.4451 37.2093 19.4451 38.0062V44.2156H17.7087V38.0062C17.7087 37.8958 17.6191 37.8062 17.5087 37.8062H15.3722C15.2617 37.8062 15.1722 37.8958 15.1722 38.0062V58.1027H12.3675V46.5521C12.3675 46.4416 12.278 46.3521 12.1675 46.3521H10.031ZM7.02633 28.3921C7.02633 27.5866 7.26521 26.7991 7.71275 26.1293C8.16029 25.4595 8.79639 24.9375 9.54062 24.6292C10.2849 24.3209 11.1038 24.2403 11.8939 24.3974C12.6839 24.5546 13.4097 24.9425 13.9793 25.5121C14.5489 26.0817 14.9368 26.8075 15.0939 27.5975C15.2511 28.3876 15.1704 29.2065 14.8622 29.9508C14.5539 30.695 14.0319 31.3311 13.3621 31.7786C12.6923 32.2262 11.9048 32.465 11.0993 32.465C10.0191 32.465 8.98309 32.0359 8.21927 31.2721C7.45544 30.5083 7.02633 29.4723 7.02633 28.3921Z" fill="#FF4400" stroke="#FF4400" stroke-width="0.4" stroke-linejoin="round"/>
<path d="M44.9266 32.465H44.9264H44.7792C45.4762 31.5794 45.9367 30.5281 46.1135 29.4102C46.3131 28.1483 46.1427 26.8556 45.6228 25.6885C45.103 24.5215 44.2561 23.5301 43.1846 22.8343C42.113 22.1385 40.8628 21.7683 39.5852 21.7683C38.3076 21.7683 37.0574 22.1385 35.9859 22.8343C34.9143 23.5301 34.0674 24.5215 33.5476 25.6885C33.0278 26.8556 32.8574 28.1483 33.057 29.4102C33.2338 30.5281 33.6943 31.5794 34.3912 32.465H34.2441H34.2438C32.7748 32.4668 31.3665 33.0511 30.3277 34.0899C29.289 35.1286 28.7047 36.537 28.7029 38.006V38.0062V45.4839C28.7029 45.8202 28.8365 46.1428 29.0743 46.3806C29.3122 46.6185 29.6348 46.7521 29.9711 46.7521H32.9758V59.3709C32.9758 59.7072 33.1094 60.0298 33.3473 60.2677C33.5851 60.5055 33.9077 60.6391 34.2441 60.6391H44.9264C45.2628 60.6391 45.5853 60.5055 45.8232 60.2677C46.061 60.0298 46.1946 59.7072 46.1946 59.3709V46.7521H49.1993C49.5357 46.7521 49.8583 46.6185 50.0961 46.3806C50.3339 46.1428 50.4676 45.8202 50.4676 45.4839V38.0062V38.006C50.4658 36.537 49.8815 35.1286 48.8427 34.0899C47.804 33.0511 46.3956 32.4668 44.9266 32.465ZM32.9758 38.0062V44.2156H31.2394V38.0062C31.2394 37.2093 31.5559 36.4451 32.1194 35.8816C32.6829 35.3181 33.4472 35.0015 34.2441 35.0015H44.9264C45.7233 35.0015 46.4875 35.3181 47.051 35.8816C47.6145 36.4451 47.9311 37.2093 47.9311 38.0062V44.2156H46.1946V38.0062C46.1946 37.8958 46.1051 37.8062 45.9946 37.8062H43.8582C43.7477 37.8062 43.6582 37.8958 43.6582 38.0062V58.1027H40.8535V46.5521C40.8535 46.4416 40.7639 46.3521 40.6535 46.3521H38.517C38.4065 46.3521 38.317 46.4416 38.317 46.5521V58.1027H35.5123V38.0062C35.5123 37.8958 35.4228 37.8062 35.3123 37.8062H33.1758C33.0654 37.8062 32.9758 37.8958 32.9758 38.0062ZM35.5123 28.3921C35.5123 27.5866 35.7512 26.7991 36.1987 26.1293C36.6462 25.4595 37.2824 24.9375 38.0266 24.6292C38.7708 24.3209 39.5897 24.2403 40.3798 24.3974C41.1699 24.5546 41.8956 24.9425 42.4652 25.5121C43.0348 26.0817 43.4227 26.8075 43.5799 27.5975C43.7371 28.3876 43.6564 29.2065 43.3481 29.9508C43.0399 30.695 42.5178 31.3311 41.848 31.7786C41.1782 32.2262 40.3908 32.465 39.5852 32.465C38.505 32.465 37.4691 32.0359 36.7052 31.2721C35.9414 30.5083 35.5123 29.4723 35.5123 28.3921Z" fill="#FF4400" stroke="#FF4400" stroke-width="0.4" stroke-linejoin="round"/>
<path d="M39.5941 9.71343V12.5117L35.7486 8.46602L33.3772 10.9608L40.0855 18.0183C40.4 18.3491 40.8265 18.5349 41.2712 18.5349C41.7159 18.5349 42.1424 18.3491 42.4569 18.0183L49.1653 10.9608L46.7939 8.46602L42.9483 12.5117V9.71343C42.9456 7.37459 42.0613 5.13235 40.4893 3.47855C38.9173 1.82474 36.786 0.894403 34.5629 0.891602H22.7004V4.42033H34.5629C35.8972 4.42033 37.177 4.978 38.1205 5.97064C39.064 6.96329 39.5941 8.30961 39.5941 9.71343Z" fill="#FF4400"/>
<path d="M39.5941 9.71343V12.5117L35.7486 8.46602L33.3772 10.9608L40.0855 18.0183C40.4 18.3491 40.8265 18.5349 41.2712 18.5349C41.7159 18.5349 42.1424 18.3491 42.4569 18.0183L49.1653 10.9608L46.7939 8.46602L42.9483 12.5117V9.71343C42.9456 7.37459 42.0613 5.13235 40.4893 3.47855C38.9173 1.82474 36.786 0.894403 34.5629 0.891602H22.7004V4.42033H34.5629C35.8972 4.42033 37.177 4.978 38.1205 5.97064C39.064 6.96329 39.5941 8.30961 39.5941 9.71343Z" stroke="#FF4400"/>
<path d="M12.7761 9.71324C12.7761 8.30945 13.2989 6.96316 14.2295 5.97053C15.1601 4.97791 16.4223 4.42026 17.7383 4.42026H29.3167V0.891602H17.7383C15.5457 0.894403 13.4436 1.82472 11.8932 3.47849C10.3428 5.13226 9.47064 7.37445 9.46802 9.71324V18.5349H12.7761V9.71324Z" fill="#FF4400"/>
<path d="M12.7761 9.71324C12.7761 8.30945 13.2989 6.96316 14.2295 5.97053C15.1601 4.97791 16.4223 4.42026 17.7383 4.42026H29.3167V0.891602H17.7383C15.5457 0.894403 13.4436 1.82472 11.8932 3.47849C10.3428 5.13226 9.47064 7.37445 9.46802 9.71324V18.5349H12.7761V9.71324Z" stroke="#FF4400"/>
</g>
</svg>
