<svg width="24" height="24" viewBox="0 0 24 24" fill="none" xmlns="http://www.w3.org/2000/svg">
<path d="M22 8.75C22 7.87125 21.4019 7.12 20.5462 6.9225L12.4131 5.04562C12.2769 5.015 12.1381 5 12 5C11.8619 5 11.7231 5.015 11.5781 5.0475L3.45375 6.9225C2.5975 7.12 2 7.87125 2 8.75C2 9.62875 2.59813 10.38 3.45313 10.5775L5.125 10.9631V16.25C5.125 17.9088 7.02375 19.375 12 19.375C16.9762 19.375 18.875 17.9088 18.875 16.25V10.9631L20.5462 10.5775C21.4019 10.38 22 9.62875 22 8.75ZM17.625 16.25C17.625 16.9406 15.75 18.125 12 18.125C8.25 18.125 6.375 16.9406 6.375 16.25V11.2519L11.5863 12.4544C11.7225 12.485 11.8619 12.5 12 12.5C12.1381 12.5 12.2775 12.485 12.4212 12.4525L17.625 11.2519V16.25ZM12.1406 11.2344C12.0938 11.2444 12.0469 11.25 12 11.25C11.9531 11.25 11.9056 11.2444 11.8594 11.2344L3.73438 9.35938C3.45063 9.29375 3.25 9.04125 3.25 8.75C3.25 8.45875 3.45063 8.20625 3.73438 8.14063L11.8594 6.26563C11.9056 6.25563 11.9525 6.25 12 6.25C12.0475 6.25 12.0944 6.25563 12.1406 6.26563L20.2656 8.14063C20.5488 8.20625 20.75 8.45875 20.75 8.75C20.75 9.04125 20.5488 9.29375 20.2656 9.35938L12.1406 11.2344Z" fill="#686868" stroke="#686868" stroke-width="0.5"/>
<path d="M20.125 11.875V17.5C20.125 17.8456 20.4044 18.125 20.75 18.125C21.095 18.125 21.375 17.8456 21.375 17.5V11.875C21.375 11.5294 21.095 11.25 20.75 11.25C20.4044 11.25 20.125 11.5294 20.125 11.875Z" fill="#686868" stroke="#686868" stroke-width="0.5"/>
<path d="M20.75 18.75C20.0594 18.75 19.5 20.56 19.5 21.25C19.5 21.94 20.0594 22.5 20.75 22.5C21.44 22.5 22 21.94 22 21.25C22 20.56 21.44 18.75 20.75 18.75Z" fill="#686868"/>
</svg>
