<svg width="62" height="54" viewBox="0 0 62 54" fill="none" xmlns="http://www.w3.org/2000/svg">
<g opacity="0.3">
<path d="M61.5782 11.7411C61.5782 9.07316 59.7623 6.79234 57.1646 6.19272L32.4722 0.494476C32.0586 0.401497 31.6373 0.355957 31.218 0.355957C30.7986 0.355957 30.3774 0.401497 29.9371 0.500168L5.27129 6.19272C2.67169 6.79234 0.857666 9.07316 0.857666 11.7411C0.857666 14.409 2.67359 16.6898 5.2694 17.2894L10.3453 18.4602V34.5113C10.3453 39.5473 16.1099 43.9989 31.218 43.9989C46.326 43.9989 52.0907 39.5473 52.0907 34.5113V18.4602L57.1646 17.2894C59.7623 16.6898 61.5782 14.409 61.5782 11.7411ZM48.2956 34.5113C48.2956 36.608 42.6031 40.2038 31.218 40.2038C19.8328 40.2038 14.1403 36.608 14.1403 34.5113V19.3368L29.9618 22.9877C30.3755 23.0806 30.7986 23.1262 31.218 23.1262C31.6373 23.1262 32.0605 23.0806 32.4969 22.982L48.2956 19.3368V34.5113ZM31.6449 19.2837C31.5026 19.3141 31.3603 19.3311 31.218 19.3311C31.0756 19.3311 30.9314 19.3141 30.791 19.2837L6.12328 13.5911C5.26181 13.3919 4.6527 12.6253 4.6527 11.7411C4.6527 10.8568 5.26181 10.0902 6.12328 9.89099L30.791 4.19843C30.9314 4.16807 31.0737 4.15099 31.218 4.15099C31.3622 4.15099 31.5045 4.16807 31.6449 4.19843L56.3126 9.89099C57.1722 10.0902 57.7832 10.8568 57.7832 11.7411C57.7832 12.6253 57.1722 13.3919 56.3126 13.5911L31.6449 19.2837Z" fill="#FF9900" stroke="#FF9900" stroke-width="0.5"/>
<path d="M55.8858 21.2286V38.3062C55.8858 39.3556 56.734 40.2038 57.7833 40.2038C58.8308 40.2038 59.6808 39.3556 59.6808 38.3062V21.2286C59.6808 20.1792 58.8308 19.3311 57.7833 19.3311C56.734 19.3311 55.8858 20.1792 55.8858 21.2286Z" fill="#FF9900" stroke="#FF9900" stroke-width="0.5"/>
<path d="M57.7832 42.1011C55.6864 42.1011 53.9882 47.5963 53.9882 49.6911C53.9882 51.786 55.6864 53.4862 57.7832 53.4862C59.8781 53.4862 61.5782 51.786 61.5782 49.6911C61.5782 47.5963 59.8781 42.1011 57.7832 42.1011Z" fill="#FF9900"/>
</g>
</svg>
