<svg width="24" height="24" viewBox="0 0 24 24" fill="none" xmlns="http://www.w3.org/2000/svg">
<path fill-rule="evenodd" clip-rule="evenodd" d="M18.4938 3.80101C20.5893 5.02191 22.0628 7.50063 21.9979 10.3929C21.917 14.002 19.1073 17.1865 14.3194 20.0306C13.6095 20.4523 12.8612 20.9998 12 20.9998C11.1551 20.9998 10.3746 20.4429 9.68057 20.0306C4.89274 17.1865 2.083 14.002 2.00206 10.3929C1.9372 7.50063 3.41065 5.02191 5.50615 3.80101C7.46612 2.65908 9.92814 2.65295 12 4.33823C14.0719 2.65295 16.5339 2.65908 18.4938 3.80101ZM17.487 5.52909C16.0933 4.71708 14.3513 4.74596 12.8427 6.27137C12.3801 6.73913 11.6199 6.73913 11.1573 6.27137C9.64871 4.74596 7.90669 4.71708 6.51299 5.52909C5.06856 6.37066 3.95242 8.15721 4.00156 10.348C4.05789 12.86 6.04114 15.5424 10.702 18.3111C11.1099 18.5534 11.5362 18.8649 12 18.9937C12.4638 18.8649 12.8901 18.5534 13.298 18.3111C17.9589 15.5424 19.9421 12.86 19.9984 10.348C20.0476 8.15721 18.9314 6.37066 17.487 5.52909Z" fill="#686868"/>
</svg>
