<svg width="18" height="18" viewBox="0 0 18 18" fill="none" xmlns="http://www.w3.org/2000/svg">
<path d="M12.51 3.07211C12.6668 2.91528 12.8795 2.82718 13.1013 2.82718C13.3231 2.82718 13.5358 2.91528 13.6926 3.07211L14.8763 4.2558C15.0333 4.41273 15.1215 4.62551 15.1217 4.84743C15.1219 5.06936 15.034 5.2823 14.8774 5.4395L6.71031 13.6066C6.44163 13.875 6.08967 14.044 5.71223 14.086L3.8985 14.2875C3.86659 14.291 3.8343 14.2873 3.80402 14.2766C3.77373 14.266 3.74623 14.2487 3.72353 14.226C3.70083 14.2033 3.68352 14.1758 3.67286 14.1455C3.66221 14.1152 3.65849 14.0829 3.66197 14.051L3.8635 12.2373C3.90546 11.8598 4.07452 11.5079 4.34292 11.2392L12.51 3.07211Z" stroke="#D10B26" stroke-width="1.5" stroke-linecap="round" stroke-linejoin="round"/>
<path d="M13.1006 7.21338L10.7343 4.84705" stroke="#D10B26" stroke-width="1.5" stroke-linecap="round" stroke-linejoin="round"/>
</svg>
