<svg width="24" height="24" viewBox="0 0 24 24" fill="none" xmlns="http://www.w3.org/2000/svg">
<path fill-rule="evenodd" clip-rule="evenodd" d="M11.2061 4.48992C12.9032 5.50818 14.9605 5.73402 16.8381 5.10816L18.4189 4.58123L17.1092 8.51011C16.997 8.84668 17.0078 9.21213 17.1395 9.54153L18.6776 13.3868L16.2056 14.2108C14.8819 14.652 13.4315 14.4928 12.2351 13.7749C10.3378 12.6365 8.01082 12.4987 6 13.3902V7.00009V4.98236C6 4.75913 6.12612 4.55506 6.32578 4.45523C7.89261 3.67182 9.65922 3.56181 11.2061 4.48992ZM4 7.00009V4.98236C4 4.00159 4.55413 3.10499 5.43136 2.66638C7.60702 1.57854 10.1053 1.49708 12.2351 2.77494C13.4315 3.49281 14.8819 3.65202 16.2056 3.21079L19.494 2.11465C20.354 1.82801 21.1721 2.64612 20.8854 3.50605L19.0645 8.96881L20.8891 13.5302C21.1241 14.1179 20.816 14.7821 20.2156 14.9823L16.8381 16.1081C14.9605 16.734 12.9032 16.5082 11.2061 15.4899C9.8048 14.6491 8.0711 14.5826 6.60946 15.3134L6 15.6181V21.0001C6 21.5524 5.55228 22.0001 5 22.0001C4.44772 22.0001 4 21.5524 4 21.0001V16.6181V15.0001V7.00009Z" fill="#686868"/>
</svg>
