<svg width="19" height="18" viewBox="0 0 19 18" fill="none" xmlns="http://www.w3.org/2000/svg">
<path d="M12.5 12L9.5 9L6.5 12" stroke="white" stroke-width="1.5" stroke-linecap="round" stroke-linejoin="round"/>
<path d="M9.5 9V15.75" stroke="white" stroke-width="1.5" stroke-linecap="round" stroke-linejoin="round"/>
<path d="M15.7926 13.7926C16.5241 13.3938 17.102 12.7628 17.435 11.9991C17.768 11.2354 17.8373 10.3825 17.6317 9.57513C17.4262 8.76772 16.9577 8.05174 16.3001 7.54019C15.6425 7.02865 14.8332 6.75066 14.0001 6.75011H13.0551C12.8281 5.87204 12.405 5.05686 11.8176 4.36585C11.2301 3.67485 10.4937 3.126 9.66367 2.76057C8.83361 2.39513 7.9315 2.22263 7.02518 2.25602C6.11885 2.28941 5.23189 2.52784 4.43097 2.95336C3.63006 3.37888 2.93603 3.98044 2.40106 4.7128C1.86609 5.44516 1.50411 6.28926 1.34233 7.18166C1.18054 8.07405 1.22317 8.99151 1.467 9.86505C1.71083 10.7386 2.14952 11.5455 2.75009 12.2251" stroke="white" stroke-width="1.5" stroke-linecap="round" stroke-linejoin="round"/>
<path d="M12.5 12L9.5 9L6.5 12" stroke="white" stroke-width="1.5" stroke-linecap="round" stroke-linejoin="round"/>
</svg>
