<svg width="313" height="210" viewBox="0 0 313 210" fill="none" xmlns="http://www.w3.org/2000/svg">
<path d="M53.1773 130.219C43.1272 119.934 27.3798 115.613 13.4863 119.327C25.5549 127.418 39.117 131.754 53.6469 131.873" fill="#F2575D"/>
<path d="M39.7157 82.5537C41.3693 70.8593 36.8242 57.7035 28.0668 49.2032C27.7779 60.7929 32.6715 73.8352 39.7157 82.5537Z" fill="#F2575D"/>
<path d="M46.7181 104.645C40.4777 92.7177 30.2341 82.9295 18.0352 77.2369C21.6909 90.7021 33.209 101.717 46.8254 104.77" fill="#F2575D"/>
<path d="M48.1683 108.906C41.1041 109.105 33.955 108.857 27.1233 107.049C20.2913 105.241 13.7482 101.767 9.20215 96.3574C22.9446 96.3728 36.655 100.557 48.0627 108.219" fill="#F2575D"/>
<path d="M44.583 94.8672C48.1684 81.4298 54.0847 72.1343 64.6477 64.6041C65.4474 71.1423 63.84 77.9473 60.1999 83.4375C56.5602 88.9273 50.9171 93.0573 44.583 94.8672Z" fill="#F2575D"/>
<path d="M71.2481 118.041C71.4336 110.233 66.4002 102.559 59.1631 99.618C59.7501 106.557 65.2019 114.584 71.2481 118.041Z" fill="#F2575D"/>
<path d="M74.623 106.711C75.4257 95.486 83.4026 85.1009 94.0414 81.4295C91.6016 92.6584 85.1082 102.006 74.623 106.711Z" fill="#F2575D"/>
<path d="M69.5371 126.817C72.028 123.254 76.093 121.038 80.2999 119.937C84.5067 118.837 88.9009 118.739 93.2486 118.649C87.3838 125.1 78.5785 128.767 69.8673 128.385" fill="#F2575D"/>
<path d="M64.4883 155.459C72.3248 153.04 81.0593 153.665 88.471 157.176C95.8831 160.687 101.9 167.048 104.992 174.645C90.2786 171.852 75.7602 165.318 64.4883 155.459Z" fill="#F2575D"/>
<path d="M48.3402 145.505C50.7849 152.729 50.3154 161.461 44.8821 167.687C42.6713 160.274 43.9782 151.893 48.3402 145.505Z" fill="#F2575D"/>
<path d="M38.7967 141.493C38.1167 150.781 32.1776 159.506 23.7849 163.545C23.3679 163.745 22.8857 163.937 22.4575 163.763C21.7953 163.493 21.7347 162.589 21.8166 161.88C22.8806 152.625 29.7385 143.674 38.7967 141.493Z" fill="#F2575D"/>
<path d="M32.5618 140.553C28.4289 145.019 22.4015 147.671 16.3169 147.702C10.2324 147.733 4.17844 145.143 0 140.72C10.3506 139.587 22.2927 138.832 32.5618 140.553Z" fill="#F2575D"/>
<path d="M31.0125 57.8219C31.0061 57.8243 31.0382 57.927 31.1074 58.1253C31.1849 58.3394 31.2895 58.6299 31.4227 59.0002C31.7158 59.786 32.135 60.9113 32.6715 62.3514C33.2285 63.8004 33.8707 65.5885 34.6152 67.6647C34.9899 68.7027 35.3901 69.8117 35.8142 70.9871C36.2226 72.1699 36.6541 73.4192 37.1067 74.7304C38.9406 79.9708 40.9765 86.2612 43.1747 93.2639C45.3329 100.28 47.5998 108.025 49.8298 116.197C52.0301 124.379 53.9806 132.212 55.6405 139.363C57.2534 146.524 58.6411 152.989 59.6426 158.449C59.8999 159.812 60.1448 161.111 60.3769 162.339C60.5866 163.572 60.7839 164.734 60.9688 165.822C61.3437 167.995 61.6645 169.867 61.8801 171.405C62.1136 172.923 62.2956 174.11 62.423 174.938C62.487 175.327 62.5371 175.631 62.5742 175.856C62.6104 176.063 62.6322 176.168 62.6392 176.167C62.6456 176.166 62.6372 176.059 62.6144 175.851C62.5866 175.624 62.5499 175.318 62.5019 174.928C62.3923 174.096 62.2346 172.906 62.0328 171.382C61.8405 169.84 61.5415 167.964 61.187 165.786C61.0115 164.695 60.8241 163.531 60.6253 162.296C60.4017 161.065 60.1657 159.763 59.9178 158.397C58.9505 152.927 57.5905 146.452 55.996 139.281C54.3544 132.122 52.4134 124.281 50.212 116.093C47.9804 107.916 45.7013 100.169 43.5229 93.1553C41.304 86.1546 39.2395 79.8697 37.3711 74.6382C36.9088 73.3294 36.4684 72.0827 36.0512 70.9023C35.6166 69.7299 35.2069 68.6239 34.8232 67.5888C34.0584 65.5186 33.3951 63.738 32.8154 62.2964C32.2489 60.8677 31.8062 59.7508 31.4971 58.9715C31.348 58.6066 31.2314 58.3216 31.1448 58.1104C31.0636 57.917 31.0187 57.8194 31.0125 57.8219Z" fill="#17282F"/>
<path d="M87.864 87.4247C87.859 87.4202 87.7985 87.4772 87.6855 87.5927C87.559 87.7256 87.3959 87.8971 87.1907 88.1133C86.7588 88.5733 86.1321 89.2624 85.3503 90.172C83.7885 91.9889 81.5827 94.6842 79.2564 98.2961C76.9297 101.897 74.5449 106.485 72.8844 111.927C71.1774 117.353 70.1179 123.52 69.0628 129.966C66.9582 142.87 64.3761 154.427 62.5064 162.788C61.5644 166.947 60.7999 170.321 60.2649 172.684C60.0101 173.834 59.8103 174.736 59.6685 175.378C59.6075 175.67 59.5599 175.901 59.5227 176.081C59.492 176.24 59.4796 176.321 59.486 176.323C59.493 176.325 59.5183 176.246 59.5619 176.09C59.609 175.913 59.6695 175.684 59.7458 175.396C59.905 174.759 60.1291 173.862 60.4147 172.719C60.9794 170.363 61.7855 166.998 62.7791 162.85C64.7187 154.505 67.3464 142.947 69.453 130.031C70.5081 123.584 71.5542 117.435 73.233 112.034C74.8647 106.619 77.2053 102.053 79.4929 98.4464C81.779 94.831 83.9447 92.1158 85.4683 90.2712C86.2303 89.3481 86.8377 88.6432 87.2502 88.1663C87.4435 87.9398 87.5967 87.7593 87.7152 87.62C87.8188 87.4956 87.8689 87.4296 87.864 87.4247Z" fill="#17282F"/>
<path d="M29.4697 140.115C29.4689 140.128 29.5975 140.152 29.8423 140.183C30.1331 140.215 30.4863 140.254 30.9139 140.301C31.1521 140.325 31.4101 140.35 31.6882 140.377C31.9733 140.42 32.2785 140.466 32.6035 140.515C33.26 140.612 34.0095 140.709 34.8253 140.89C35.236 140.971 35.6649 141.057 36.1101 141.145C36.5528 141.257 37.0124 141.373 37.4867 141.494C38.4446 141.71 39.4345 142.061 40.4898 142.379C42.5702 143.108 44.8108 144.047 47.0434 145.267C49.2683 146.503 51.2376 147.927 52.9194 149.348C53.7355 150.087 54.5228 150.778 55.1738 151.512C55.8709 152.203 56.4356 152.919 56.9576 153.569C57.508 154.199 57.8912 154.852 58.2784 155.39C58.6716 155.925 58.9542 156.421 59.1833 156.828C59.4019 157.198 59.5834 157.504 59.7321 157.755C59.8615 157.966 59.9359 158.073 59.9478 158.067C59.9602 158.061 59.9101 157.942 59.803 157.719C59.6711 157.457 59.511 157.139 59.3176 156.753C59.1079 156.332 58.8427 155.821 58.4644 155.27C58.0915 154.715 57.7207 154.045 57.1798 153.399C56.6661 152.732 56.1074 151.996 55.4137 151.287C54.7652 150.536 53.9784 149.828 53.1588 149.073C51.4712 147.621 49.4842 146.17 47.2351 144.921C44.9786 143.687 42.711 142.75 40.6052 142.033C39.5375 141.722 38.5358 141.38 37.5671 141.175C37.0872 141.062 36.6225 140.953 36.1748 140.847C35.7245 140.767 35.2911 140.689 34.876 140.614C34.0512 140.45 33.2941 140.372 32.6312 140.296C32.3035 140.258 31.9954 140.223 31.7078 140.19C31.4273 140.175 31.1672 140.161 30.9269 140.148C30.4962 140.13 30.1394 140.115 29.8468 140.103C29.6001 140.097 29.4701 140.101 29.4697 140.115Z" fill="#17282F"/>
<path d="M26.5223 87.6719C26.5043 87.6927 26.7708 87.947 27.268 88.3902C27.8292 88.877 28.5439 89.4967 29.398 90.2378C31.2076 91.7845 33.7261 93.9008 36.5231 96.2198C39.3212 98.5394 41.868 100.622 43.7236 102.114C44.6098 102.816 45.3512 103.403 45.9335 103.864C46.4611 104.271 46.7605 104.485 46.7777 104.463C46.7946 104.442 46.5275 104.187 46.03 103.744C45.4685 103.257 44.7537 102.637 43.8994 101.896C42.0896 100.349 39.5722 98.2335 36.7756 95.9149C33.9802 93.5974 31.4349 91.5163 29.5794 90.0246C28.6926 89.3222 27.951 88.7347 27.3683 88.2732C26.8403 87.8662 26.5399 87.6511 26.5223 87.6719Z" fill="#17282F"/>
<path d="M23.9777 101.362C23.9467 101.466 29.3813 103.164 36.1144 105.154C42.8501 107.143 48.3339 108.671 48.3649 108.566C48.3959 108.462 42.9622 106.764 36.2266 104.774C29.4934 102.785 24.0087 101.257 23.9777 101.362Z" fill="#17282F"/>
<path d="M44.0444 95.9116C44.0678 95.9255 44.2665 95.6469 44.6053 95.1313C44.9878 94.5488 45.4675 93.8181 46.0379 92.9491C47.2529 91.1109 48.9779 88.6035 51.0175 85.9335C53.0602 83.2644 55.0255 80.9394 56.4742 79.2792C57.1594 78.497 57.7355 77.8396 58.1946 77.3156C58.6007 76.8506 58.8154 76.5844 58.796 76.5656C58.7762 76.5467 58.5234 76.7768 58.0826 77.21C57.6403 77.6413 57.0186 78.2833 56.266 79.0918C54.7608 80.7079 52.7538 83.0136 50.7032 85.693C48.6555 88.3735 46.9597 90.9171 45.8022 92.7984C45.2231 93.7388 44.7701 94.5097 44.4736 95.0515C44.1747 95.5924 44.0208 95.8977 44.0444 95.9116Z" fill="#17282F"/>
<path d="M62.918 103.51C62.8709 103.543 63.3811 104.33 64.1932 105.606C65.0053 106.882 66.1065 108.656 67.2478 110.66C68.3872 112.665 69.35 114.519 70.0322 115.869C70.7149 117.219 71.1299 118.059 71.183 118.036C71.2301 118.015 70.9053 117.134 70.2851 115.749C69.6653 114.363 68.7372 112.479 67.5919 110.465C66.4451 108.451 65.2999 106.691 64.4258 105.451C63.5512 104.21 62.9597 103.48 62.918 103.51Z" fill="#17282F"/>
<path d="M69.3745 127.191C69.4028 127.245 70.439 126.738 72.1361 125.975C73.8327 125.21 76.2021 124.213 78.8794 123.274C81.5587 122.338 84.0332 121.641 85.8365 121.18C87.6392 120.719 88.7651 120.469 88.7537 120.409C88.7488 120.383 88.4612 120.414 87.9446 120.494C87.428 120.571 86.6848 120.711 85.7715 120.908C83.9455 121.3 81.4432 121.959 78.7485 122.901C76.0559 123.845 73.6889 124.889 72.0166 125.722C71.1797 126.137 70.5119 126.491 70.0597 126.753C69.606 127.012 69.3616 127.167 69.3745 127.191Z" fill="#17282F"/>
<path d="M64.2911 155.502C64.2881 155.516 64.4036 155.555 64.6267 155.616C64.8954 155.685 65.2177 155.767 65.6049 155.865C66.5212 156.077 67.7408 156.358 69.2193 156.699C72.2665 157.407 76.511 158.292 81.0247 159.815C85.5389 161.351 89.4121 163.305 92.0388 164.989C93.3552 165.827 94.3815 166.567 95.0731 167.101C95.7682 167.631 96.147 167.934 96.1673 167.91C96.1763 167.899 96.0925 167.811 95.9244 167.652C95.7538 167.497 95.5099 167.258 95.1698 166.981C94.5044 166.407 93.4975 165.629 92.1915 164.754C89.5851 162.998 85.6966 160.986 81.1536 159.441C76.6037 157.906 72.3423 157.065 69.2783 156.426C67.7884 156.135 66.5598 155.895 65.6372 155.714C64.776 155.554 64.297 155.475 64.2911 155.502Z" fill="#17282F"/>
<path d="M45.9079 162.481C46.0162 162.497 46.6635 158.686 47.3533 153.97C48.0435 149.251 48.5153 145.415 48.4071 145.399C48.299 145.383 47.6522 149.194 46.9619 153.912C46.2717 158.629 45.8001 162.466 45.9079 162.481Z" fill="#17282F"/>
<path d="M26.77 155.533C26.8156 155.567 27.4596 154.772 28.4946 153.485C29.529 152.197 30.9621 150.424 32.5818 148.496C34.2032 146.567 35.7042 144.85 36.7943 143.609C37.8839 142.368 38.5561 141.598 38.5147 141.558C38.495 141.539 38.3011 141.708 37.9666 142.028C37.6316 142.347 37.1604 142.823 36.5881 143.42C35.4429 144.615 33.9044 146.308 32.2789 148.241C30.6546 150.174 29.2522 151.981 28.2726 153.314C27.7824 153.981 27.3951 154.527 27.1381 154.912C26.8799 155.296 26.7479 155.517 26.77 155.533Z" fill="#17282F"/>
<path d="M77.4182 173.281V182.736H75.0537L66.648 209.265H48.0066L39.8631 182.999L36.7109 182.736V173.281H77.4182Z" fill="#33535F"/>
<path d="M38.2871 182.999C38.2871 183.109 46.5185 183.197 56.6699 183.197C66.8248 183.197 75.054 183.109 75.054 182.999C75.054 182.889 66.8248 182.801 56.6699 182.801C46.5185 182.801 38.2871 182.889 38.2871 182.999Z" fill="#17282F"/>
<path d="M24.8799 122.178C24.8747 122.204 25.3006 122.318 26.0745 122.5C26.9142 122.702 28.0162 122.968 29.3468 123.288C32.104 123.972 35.8909 125.008 39.9987 126.387C44.1066 127.771 47.7505 129.233 50.3602 130.355C51.6141 130.903 52.6523 131.358 53.4436 131.704C54.1709 132.026 54.5785 132.193 54.5904 132.169C54.6027 132.144 54.2175 131.931 53.51 131.565C52.8045 131.196 51.7673 130.693 50.4738 130.099C47.887 128.909 44.2466 127.401 40.1247 126.012C36.0032 124.628 32.191 123.631 29.4109 123.016C28.0209 122.708 26.8908 122.482 26.1057 122.349C25.3211 122.213 24.8852 122.15 24.8799 122.178Z" fill="#17282F"/>
<path d="M44.4766 197.731C44.4766 197.84 50.2516 197.929 57.3737 197.929C64.4983 197.929 70.2719 197.84 70.2719 197.731C70.2719 197.621 64.4983 197.533 57.3737 197.533C50.2516 197.533 44.4766 197.621 44.4766 197.731Z" fill="#FAFAF9"/>
<path d="M43.751 195.537C43.751 195.647 49.871 195.735 57.4186 195.735C64.969 195.735 71.0877 195.647 71.0877 195.537C71.0877 195.427 64.969 195.339 57.4186 195.339C49.871 195.339 43.751 195.427 43.751 195.537Z" fill="#FAFAF9"/>
<path d="M305.578 -3.05176e-05H67.8059C63.7066 -3.05176e-05 60.3838 3.32239 60.3838 7.42062V175.344C60.3838 179.442 63.7066 182.765 67.8059 182.765H159.062C159.062 182.765 164.867 200.713 146.872 210H232.202C232.202 210 211.884 203.036 217.109 182.765H305.579C309.677 182.765 313 179.442 313 175.344V7.42113C313 3.32239 309.677 -3.05176e-05 305.578 -3.05176e-05Z" fill="#17282F"/>
<path d="M189.866 165.104C193.1 169.726 188.038 174.788 183.414 171.554C183.262 171.447 183.123 171.309 183.018 171.156C179.791 166.535 184.848 161.48 189.468 164.707C189.621 164.813 189.759 164.952 189.866 165.104Z" fill="#33535F"/>
<path d="M308.906 152.045H64.4775V7.88383C64.4775 5.22868 66.6303 3.07669 69.2853 3.07669H304.098C306.754 3.07669 308.906 5.22868 308.906 7.88383V152.045Z" fill="white"/>
<path d="M308.906 15.4541H64.4775V7.61357C64.4775 5.10763 66.5093 3.0761 69.0161 3.0761H305.18C307.238 3.0761 308.906 4.74377 308.906 6.80156V15.4541Z" fill="#E7E8E5"/>
<path d="M73.9788 9.52545C73.9788 10.4733 73.2103 11.2422 72.2619 11.2422C71.3134 11.2422 70.5449 10.4733 70.5449 9.52545C70.5449 8.57662 71.3134 7.80823 72.2619 7.80823C73.2103 7.80823 73.9788 8.57662 73.9788 9.52545Z" fill="#17282F"/>
<path d="M79.0975 9.52545C79.0975 10.4733 78.3285 11.2422 77.38 11.2422C76.4321 11.2422 75.6631 10.4733 75.6631 9.52545C75.6631 8.57662 76.4321 7.80823 77.38 7.80823C78.3285 7.80823 79.0975 8.57662 79.0975 9.52545Z" fill="#17282F"/>
<path d="M83.9651 9.52545C83.9651 10.4733 83.1967 11.2422 82.2482 11.2422C81.2997 11.2422 80.5312 10.4733 80.5312 9.52545C80.5312 8.57662 81.2997 7.80823 82.2482 7.80823C83.1967 7.80823 83.9651 8.57662 83.9651 9.52545Z" fill="#17282F"/>
<path d="M263.068 182.788C263.068 182.868 229.232 182.931 187.504 182.931C145.761 182.931 111.934 182.868 111.934 182.788C111.934 182.71 145.761 182.646 187.504 182.646C229.232 182.646 263.068 182.71 263.068 182.788Z" fill="#33535F"/>
<path d="M218.954 103.548C220.865 106.86 218.466 111 214.65 111H164.974C161.151 111 158.764 106.854 160.671 103.548L185.509 60.4828C187.42 57.1694 192.208 57.1754 194.116 60.4828L218.954 103.548ZM189.813 94.6445C187.183 94.6445 185.051 96.7764 185.051 99.4062C185.051 102.036 187.183 104.168 189.813 104.168C192.442 104.168 194.574 102.036 194.574 99.4062C194.574 96.7764 192.442 94.6445 189.813 94.6445ZM185.292 77.5286L186.06 91.6068C186.095 92.2655 186.64 92.7812 187.3 92.7812H192.325C192.985 92.7812 193.53 92.2655 193.565 91.6068L194.333 77.5286C194.372 76.8171 193.806 76.2188 193.093 76.2188H186.532C185.819 76.2188 185.253 76.8171 185.292 77.5286Z" fill="#F2575D"/>
</svg>
