<svg fill="none" height="210" viewBox="0 0 313 210" width="313" xmlns="http://www.w3.org/2000/svg"><g fill="#f2575d"><path d="m53.1773 130.219c-10.0501-10.285-25.7975-14.606-39.691-10.892 12.0686 8.091 25.6307 12.427 40.1606 12.546"/><path d="m39.7157 82.5537c1.6536-11.6944-2.8915-24.8502-11.6489-33.3505-.2889 11.5897 4.6047 24.632 11.6489 33.3505z"/><path d="m46.7181 104.645c-6.2404-11.9273-16.484-21.7155-28.6829-27.4081 3.6557 13.4652 15.1738 24.4801 28.7902 27.5331"/><path d="m48.1683 108.906c-7.0642.199-14.2133-.049-21.045-1.857-6.832-1.808-13.3751-5.282-17.92115-10.6916 13.74245.0154 27.45285 4.1996 38.86055 11.8616"/><path d="m44.583 94.8672c3.5854-13.4374 9.5017-22.7329 20.0647-30.2631.7997 6.5382-.8077 13.3432-4.4478 18.8334-3.6397 5.4898-9.2828 9.6198-15.6169 11.4297z"/><path d="m71.2481 118.041c.1855-7.808-4.8479-15.482-12.085-18.423.587 6.939 6.0388 14.966 12.085 18.423z"/><path d="m74.623 106.711c.8027-11.225 8.7796-21.6101 19.4184-25.2815-2.4398 11.2289-8.9332 20.5765-19.4184 25.2815z"/><path d="m69.5371 126.817c2.4909-3.563 6.5559-5.779 10.7628-6.88 4.2068-1.1 8.601-1.198 12.9487-1.288-5.8648 6.451-14.6701 10.118-23.3813 9.736"/><path d="m64.4883 155.459c7.8365-2.419 16.571-1.794 23.9827 1.717 7.4121 3.511 13.429 9.872 16.521 17.469-14.7134-2.793-29.2318-9.327-40.5037-19.186z"/><path d="m48.3402 145.505c2.4447 7.224 1.9752 15.956-3.4581 22.182-2.2108-7.413-.9039-15.794 3.4581-22.182z"/><path d="m38.7967 141.493c-.68 9.288-6.6191 18.013-15.0118 22.052-.417.2-.8992.392-1.3274.218-.6622-.27-.7228-1.174-.6409-1.883 1.064-9.255 7.9219-18.206 16.9801-20.387z"/><path d="m32.5618 140.553c-4.1329 4.466-10.1603 7.118-16.2449 7.149-6.0845.031-12.13846-2.559-16.3169-6.982 10.3506-1.133 22.2927-1.888 32.5618-.167z"/></g><path d="m31.0125 57.8219c-.0064.0024.0257.1051.0949.3034.0775.2141.1821.5046.3153.8749.2931.7858.7123 1.9111 1.2488 3.3512.557 1.449 1.1992 3.2371 1.9437 5.3133.3747 1.038.7749 2.147 1.199 3.3224.4084 1.1828.8399 2.4321 1.2925 3.7433 1.8339 5.2404 3.8698 11.5308 6.068 18.5335 2.1582 7.0161 4.4251 14.7611 6.6551 22.9331 2.2003 8.182 4.1508 16.015 5.8107 23.166 1.6129 7.161 3.0006 13.626 4.0021 19.086.2573 1.363.5022 2.662.7343 3.89.2097 1.233.407 2.395.5919 3.483.3749 2.173.6957 4.045.9113 5.583.2335 1.518.4155 2.705.5429 3.533.064.389.1141.693.1512.918.0362.207.058.312.065.311.0064-.001-.002-.108-.0248-.316-.0278-.227-.0645-.533-.1125-.923-.1096-.832-.2673-2.022-.4691-3.546-.1923-1.542-.4913-3.418-.8458-5.596-.1755-1.091-.3629-2.255-.5617-3.49-.2236-1.231-.4596-2.533-.7075-3.899-.9673-5.47-2.3273-11.945-3.9218-19.116-1.6416-7.159-3.5826-15-5.784-23.188-2.2316-8.177-4.5107-15.924-6.6891-22.9377-2.2189-7.0007-4.2834-13.2856-6.1518-18.5171-.4623-1.3088-.9027-2.5555-1.3199-3.7359-.4346-1.1724-.8443-2.2784-1.228-3.3135-.7648-2.0702-1.4281-3.8508-2.0078-5.2924-.5665-1.4287-1.0092-2.5456-1.3183-3.3249-.1491-.3649-.2657-.6499-.3523-.8611-.0812-.1934-.1261-.291-.1323-.2885z" fill="#17282f"/><path d="m87.864 87.4247c-.005-.0045-.0655.0525-.1785.168-.1265.1329-.2896.3044-.4948.5206-.4319.46-1.0586 1.1491-1.8404 2.0587-1.5618 1.8169-3.7676 4.5122-6.0939 8.1241-2.3267 3.6009-4.7115 8.1889-6.372 13.6309-1.707 5.426-2.7665 11.593-3.8216 18.039-2.1046 12.904-4.6867 24.461-6.5564 32.822-.942 4.159-1.7065 7.533-2.2415 9.896-.2548 1.15-.4546 2.052-.5964 2.694-.061.292-.1086.523-.1458.703-.0307.159-.0431.24-.0367.242.007.002.0323-.077.0759-.233.0471-.177.1076-.406.1839-.694.1592-.637.3833-1.534.6689-2.677.5647-2.356 1.3708-5.721 2.3644-9.869 1.9396-8.345 4.5673-19.903 6.6739-32.819 1.0551-6.447 2.1012-12.596 3.78-17.997 1.6317-5.415 3.9723-9.981 6.2599-13.5876 2.2861-3.6154 4.4518-6.3306 5.9754-8.1752.762-.9231 1.3694-1.628 1.7819-2.1049.1933-.2265.3465-.407.465-.5463.1036-.1244.1537-.1904.1488-.1953z" fill="#17282f"/><path d="m29.4697 140.115c-.0008.013.1278.037.3726.068.2908.032.644.071 1.0716.118.2382.024.4962.049.7743.076.2851.043.5903.089.9153.138.6565.097 1.406.194 2.2218.375.4107.081.8396.167 1.2848.255.4427.112.9023.228 1.3766.349.9579.216 1.9478.567 3.0031.885 2.0804.729 4.321 1.668 6.5536 2.888 2.2249 1.236 4.1942 2.66 5.876 4.081.8161.739 1.6034 1.43 2.2544 2.164.6971.691 1.2618 1.407 1.7838 2.057.5504.63.9336 1.283 1.3208 1.821.3932.535.6758 1.031.9049 1.438.2186.37.4001.676.5488.927.1294.211.2038.318.2157.312.0124-.006-.0377-.125-.1448-.348-.1319-.262-.292-.58-.4854-.966-.2097-.421-.4749-.932-.8532-1.483-.3729-.555-.7437-1.225-1.2846-1.871-.5137-.667-1.0724-1.403-1.7661-2.112-.6485-.751-1.4353-1.459-2.2549-2.214-1.6876-1.452-3.6746-2.903-5.9237-4.152-2.2565-1.234-4.5241-2.171-6.6299-2.888-1.0677-.311-2.0694-.653-3.0381-.858-.4799-.113-.9446-.222-1.3923-.328-.4503-.08-.8837-.158-1.2988-.233-.8248-.164-1.5819-.242-2.2448-.318-.3277-.038-.6358-.073-.9234-.106-.2805-.015-.5406-.029-.7809-.042-.4307-.018-.7875-.033-1.0801-.045-.2467-.006-.3767-.002-.3771.012z" fill="#17282f"/><path d="m26.5223 87.6719c-.018.0208.2485.2751.7457.7183.5612.4868 1.2759 1.1065 2.13 1.8476 1.8096 1.5467 4.3281 3.663 7.1251 5.982 2.7981 2.3196 5.3449 4.4022 7.2005 5.8942.8862.702 1.6276 1.289 2.2099 1.75.5276.407.827.621.8442.599.0169-.021-.2502-.276-.7477-.719-.5615-.487-1.2763-1.107-2.1306-1.848-1.8098-1.547-4.3272-3.6625-7.1238-5.9811-2.7954-2.3175-5.3407-4.3986-7.1962-5.8903-.8868-.7024-1.6284-1.2899-2.2111-1.7514-.528-.407-.8284-.6221-.846-.6013z" fill="#17282f"/><path d="m23.9777 101.362c-.031.104 5.4036 1.802 12.1367 3.792 6.7357 1.989 12.2195 3.517 12.2505 3.412.031-.104-5.4027-1.802-12.1383-3.792-6.7332-1.989-12.2179-3.517-12.2489-3.412z" fill="#17282f"/><path d="m44.0444 95.9116c.0234.0139.2221-.2647.5609-.7803.3825-.5825.8622-1.3132 1.4326-2.1822 1.215-1.8382 2.94-4.3456 4.9796-7.0156 2.0427-2.6691 4.008-4.9941 5.4567-6.6543.6852-.7822 1.2613-1.4396 1.7204-1.9636.4061-.465.6208-.7312.6014-.75-.0198-.0189-.2726.2112-.7134.6444-.4423.4313-1.064 1.0733-1.8166 1.8818-1.5052 1.6161-3.5122 3.9218-5.5628 6.6012-2.0477 2.6805-3.7435 5.2241-4.901 7.1054-.5791.9404-1.0321 1.7113-1.3286 2.2531-.2989.5409-.4528.8462-.4292.8601z" fill="#17282f"/><path d="m62.918 103.51c-.0471.033.4631.82 1.2752 2.096s1.9133 3.05 3.0546 5.054c1.1394 2.005 2.1022 3.859 2.7844 5.209.6827 1.35 1.0977 2.19 1.1508 2.167.0471-.021-.2777-.902-.8979-2.287-.6198-1.386-1.5479-3.27-2.6932-5.284-1.1468-2.014-2.292-3.774-3.1661-5.014-.8746-1.241-1.4661-1.971-1.5078-1.941z" fill="#17282f"/><path d="m69.3745 127.191c.0283.054 1.0645-.453 2.7616-1.216 1.6966-.765 4.066-1.762 6.7433-2.701 2.6793-.936 5.1538-1.633 6.9571-2.094 1.8027-.461 2.9286-.711 2.9172-.771-.0049-.026-.2925.005-.8091.085-.5166.077-1.2598.217-2.1731.414-1.826.392-4.3283 1.051-7.023 1.993-2.6926.944-5.0596 1.988-6.7319 2.821-.8369.415-1.5047.769-1.9569 1.031-.4537.259-.6981.414-.6852.438z" fill="#17282f"/><path d="m64.2911 155.502c-.003.014.1125.053.3356.114.2687.069.591.151.9782.249.9163.212 2.1359.493 3.6144.834 3.0472.708 7.2917 1.593 11.8054 3.116 4.5142 1.536 8.3874 3.49 11.0141 5.174 1.3164.838 2.3427 1.578 3.0343 2.112.6951.53 1.0739.833 1.0942.809.009-.011-.0748-.099-.2429-.258-.1706-.155-.4145-.394-.7546-.671-.6654-.574-1.6723-1.352-2.9783-2.227-2.6064-1.756-6.4949-3.768-11.0379-5.313-4.5499-1.535-8.8113-2.376-11.8753-3.015-1.4899-.291-2.7185-.531-3.6411-.712-.8612-.16-1.3402-.239-1.3461-.212z" fill="#17282f"/><path d="m45.9079 162.481c.1083.016.7556-3.795 1.4454-8.511.6902-4.719 1.162-8.555 1.0538-8.571-.1081-.016-.7549 3.795-1.4452 8.513-.6902 4.717-1.1618 8.554-1.054 8.569z" fill="#17282f"/><path d="m26.77 155.533c.0456.034.6896-.761 1.7246-2.048 1.0344-1.288 2.4675-3.061 4.0872-4.989 1.6214-1.929 3.1224-3.646 4.2125-4.887 1.0896-1.241 1.7618-2.011 1.7204-2.051-.0197-.019-.2136.15-.5481.47-.335.319-.8062.795-1.3785 1.392-1.1452 1.195-2.6837 2.888-4.3092 4.821-1.6243 1.933-3.0267 3.74-4.0063 5.073-.4902.667-.8775 1.213-1.1345 1.598-.2582.384-.3902.605-.3681.621z" fill="#17282f"/><path d="m77.4182 173.281v9.455h-2.3645l-8.4057 26.529h-18.6414l-8.1435-26.266-3.1522-.263v-9.455z" fill="#33535f"/><path d="m38.2871 182.999c0 .11 8.2314.198 18.3828.198 10.1549 0 18.3841-.088 18.3841-.198s-8.2292-.198-18.3841-.198c-10.1514 0-18.3828.088-18.3828.198z" fill="#17282f"/><path d="m24.8799 122.178c-.0052.026.4207.14 1.1946.322.8397.202 1.9417.468 3.2723.788 2.7572.684 6.5441 1.72 10.6519 3.099 4.1079 1.384 7.7518 2.846 10.3615 3.968 1.2539.548 2.2921 1.003 3.0834 1.349.7273.322 1.1349.489 1.1468.465.0123-.025-.3729-.238-1.0804-.604-.7055-.369-1.7427-.872-3.0362-1.466-2.5868-1.19-6.2272-2.698-10.3491-4.087-4.1215-1.384-7.9337-2.381-10.7138-2.996-1.39-.308-2.5201-.534-3.3052-.667-.7846-.136-1.2205-.199-1.2258-.171z" fill="#17282f"/><path d="m44.4766 197.731c0 .109 5.775.198 12.8971.198 7.1246 0 12.8982-.089 12.8982-.198 0-.11-5.7736-.198-12.8982-.198-7.1221 0-12.8971.088-12.8971.198z" fill="#fafaf9"/><path d="m43.751 195.537c0 .11 6.12.198 13.6676.198 7.5504 0 13.6691-.088 13.6691-.198s-6.1187-.198-13.6691-.198c-7.5476 0-13.6676.088-13.6676.198z" fill="#fafaf9"/><path d="m305.578-.00003052h-237.7721c-4.0993 0-7.4221 3.32242052-7.4221 7.42065052v167.92338c0 4.098 3.3228 7.421 7.4221 7.421h91.2561s5.805 17.948-12.19 27.235h85.33s-20.318-6.964-15.093-27.235h88.47c4.098 0 7.421-3.323 7.421-7.421v-167.92287c0-4.09874-3.323-7.42116052-7.422-7.42116052z" fill="#17282f"/><path d="m189.866 165.104c3.234 4.622-1.828 9.684-6.452 6.45-.152-.107-.291-.245-.396-.398-3.227-4.621 1.83-9.676 6.45-6.449.153.106.291.245.398.397z" fill="#33535f"/><path d="m308.906 152.045h-244.4285v-144.16117c0-2.65515 2.1528-4.80714 4.8078-4.80714h234.8127c2.656 0 4.808 2.15199 4.808 4.80714z" fill="#fff"/><path d="m308.906 15.4541h-244.4285v-7.84053c0-2.50594 2.0318-4.53747 4.5386-4.53747h236.1639c2.058 0 3.726 1.66767 3.726 3.72546z" fill="#e7e8e5"/><path d="m73.9788 9.52545c0 .94785-.7685 1.71675-1.7169 1.71675-.9485 0-1.717-.7689-1.717-1.71675 0-.94883.7685-1.71722 1.717-1.71722.9484 0 1.7169.76839 1.7169 1.71722z" fill="#17282f"/><path d="m79.0975 9.52545c0 .94785-.769 1.71675-1.7175 1.71675-.9479 0-1.7169-.7689-1.7169-1.71675 0-.94883.769-1.71722 1.7169-1.71722.9485 0 1.7175.76839 1.7175 1.71722z" fill="#17282f"/><path d="m83.9651 9.52545c0 .94785-.7684 1.71675-1.7169 1.71675s-1.717-.7689-1.717-1.71675c0-.94883.7685-1.71722 1.717-1.71722s1.7169.76839 1.7169 1.71722z" fill="#17282f"/><path d="m263.068 182.788c0 .08-33.836.143-75.564.143-41.743 0-75.57-.063-75.57-.143 0-.078 33.827-.142 75.57-.142 41.728 0 75.564.064 75.564.142z" fill="#33535f"/><path d="m123.66 90.8091 19.63-30.6818 13.609-1.6364-1.155 31.6636 7.918-.3272-.825 8.2636-6.598-.1636.495 13.1727h-11.547l.824-13.3364-23.011.0819zm22.104-21.7636-13.114 21.0272 13.526-.0818z" fill="#f2575d"/><path d="m192.87 58c5.664 0 10.2 2.2364 13.609 6.7091 3.464 4.4182 5.196 10.2818 5.196 17.5909 0 9.2182-2.089 16.4727-6.268 21.764-4.124 5.291-9.815 7.936-17.073 7.936-5.554 0-10.09-2.236-13.609-6.709-3.464-4.527-5.196-10.4183-5.196-17.6728 0-8.6727 2.172-15.7637 6.515-21.2727 4.399-5.5637 10.008-8.3455 16.826-8.3455zm-1.897 45.982c3.519 0 5.966-1.337 7.341-4.0093 1.429-2.6727 2.144-7.4181 2.144-14.2363s-.715-11.5909-2.144-14.3182c-1.43-2.7818-3.932-4.1727-7.506-4.1727s-6.158 1.309-7.753 3.9272c-1.539 2.5637-2.309 7.0637-2.309 13.5 0 6.3818.825 11.2091 2.474 14.4818 1.65 3.2185 4.234 4.8275 7.753 4.8275z" fill="#f2575d"/><path d="m214.998 90.8091 19.63-30.6818 13.609-1.6364-1.155 31.6636 7.918-.3272-.825 8.2636-6.598-.1636.495 13.1727h-11.547l.825-13.3364-23.012.0819zm22.104-21.7636-13.114 21.0272 13.527-.0818z" fill="#f2575d"/></svg>