<svg width="267" height="204" viewBox="0 0 267 204" fill="none" xmlns="http://www.w3.org/2000/svg">
<mask id="mask0_563_1072" style="mask-type:alpha" maskUnits="userSpaceOnUse" x="0" y="0" width="262" height="197">
<rect width="262" height="197" rx="4" fill="white"/>
</mask>
<g mask="url(#mask0_563_1072)">
<path d="M176.78 137.426L147.453 112.294L147.758 111.936L176.714 136.749L211.784 91.782L225.588 101.793L243.775 63.5537L244.145 63.8404L225.686 102.447L211.878 92.4259L176.78 137.426Z" fill="#EBEBEB"/>
<path d="M75.0441 177.81C75.0441 178.125 74.9508 178.433 74.7762 178.695C74.6015 178.957 74.3533 179.162 74.0629 179.282C73.7725 179.403 73.4529 179.434 73.1446 179.373C72.8363 179.311 72.553 179.16 72.3308 178.937C72.1085 178.714 71.9571 178.43 71.8958 178.121C71.8344 177.812 71.8659 177.492 71.9862 177.2C72.1065 176.909 72.3102 176.66 72.5716 176.485C72.833 176.31 73.1403 176.217 73.4546 176.217C73.8762 176.217 74.2805 176.385 74.5785 176.683C74.8766 176.982 75.0441 177.388 75.0441 177.81Z" fill="#EBEBEB"/>
<path d="M147.609 115.26C149.342 115.26 150.746 113.852 150.746 112.115C150.746 110.379 149.342 108.971 147.609 108.971C145.877 108.971 144.473 110.379 144.473 112.115C144.473 113.852 145.877 115.26 147.609 115.26Z" fill="#EBEBEB"/>
<path d="M73.6329 177.97L73.2812 177.656L107.475 139.791L115.201 146.526L146.014 113.291L146.357 113.611L115.234 147.179L107.517 140.449L73.6329 177.97Z" fill="#EBEBEB"/>
<path d="M244.108 67.4257C246.366 67.4257 248.196 65.5907 248.196 63.3271C248.196 61.0635 246.366 59.2285 244.108 59.2285C241.85 59.2285 240.02 61.0635 240.02 63.3271C240.02 65.5907 241.85 67.4257 244.108 67.4257Z" fill="#EBEBEB"/>
<path d="M122.883 105.948C123.281 103.015 119.16 100.609 116.061 100.355C114.584 100.237 113.051 100.463 111.649 99.9741C108.616 98.9165 107.429 94.9871 104.448 93.7369C102.235 92.7968 99.684 93.6335 97.5413 94.7145C95.3987 95.7956 93.2748 97.1586 90.8789 97.3137C88.7972 97.4453 86.5326 96.6698 84.7088 97.6945C83.3491 98.4512 82.6365 100.045 81.3846 100.947C80.1328 101.849 78.5715 102.047 77.0431 102.131C75.5146 102.216 73.9486 102.23 72.5608 102.865C71.173 103.499 70.0337 104.966 70.3197 106.465L122.883 105.948Z" fill="#EBEBEB"/>
<path d="M243.293 42.8682C243.542 41.0398 240.972 39.5358 239.041 39.3807C238.103 39.3055 237.165 39.4465 236.288 39.1409C234.413 38.4829 233.639 36.0341 231.792 35.2492C230.414 34.6664 228.824 35.1881 227.488 35.8602C226.152 36.5323 224.825 37.3878 223.334 37.4818C222.031 37.5664 220.619 37.0823 219.48 37.7215C218.636 38.1915 218.191 39.1738 217.408 39.752C216.595 40.2559 215.653 40.5107 214.698 40.4852C213.739 40.4669 212.785 40.6263 211.885 40.9552C211.022 41.35 210.309 42.2666 210.478 43.2019L243.293 42.8682Z" fill="#F5F5F5"/>
<path d="M112.025 72.9006C112.156 71.9183 110.773 71.1099 109.737 71.0206C109.239 71.0387 108.742 70.9945 108.255 70.889C107.238 70.5364 106.849 69.2157 105.841 68.7974C105.095 68.4824 104.242 68.7645 103.525 69.1264C102.807 69.4883 102.118 69.9442 101.288 69.9959C100.59 70.0429 99.83 69.7844 99.2205 70.1228C98.7516 70.3813 98.5266 70.9078 98.1046 71.218C97.667 71.4884 97.1604 71.6255 96.6465 71.6128C96.1351 71.5998 95.626 71.6843 95.1462 71.8619C94.9058 71.9555 94.7023 72.1248 94.5662 72.3444C94.4301 72.5639 94.3687 72.8218 94.3913 73.0792L112.025 72.9006Z" fill="#FAFAFA"/>
<path d="M121 170.425L130.297 149.702L139.853 143.954L145.793 131L162.836 135.005L175.551 174.101L155.873 183.797L139.853 193.588L121 170.425Z" fill="#F5F5F5"/>
<path d="M266 211.156L251.964 183.023L245.468 173.26L237.811 137.701L228.59 130L219.325 142.959L206.67 146.124L195 157.332L218.488 182.359L232.332 197.019L243.145 217.298L263.9 237C263.689 236.808 266 211.156 266 211.156Z" fill="#EBEBEB"/>
<path d="M72 251.182L73.716 228.325L82.8821 214.041L88.8834 186.855L99.7936 180.435L113.273 157.709L126.11 149L152.746 175.406L170.328 156.426L183.882 160.948L178.298 167.909L164.205 170.644L136.43 194.921L114.834 206.855L109.077 217.28L96.582 219.118L72 251.182Z" fill="#EBEBEB"/>
<path d="M201 154L181.5 149L170.5 167L156 170L129.5 193L119 199H134H149.5L242 197.5L201 154Z" fill="white"/>
<path d="M188 180.837L162.42 180L155.331 189.141L144.101 194.117L138 207L145.101 198.798L158.76 196.519L168.483 186.428L188 180.837Z" fill="#F5F5F5"/>
<path d="M64 249.995C64 249.995 64.136 249.803 64.4173 249.431L65.6644 247.786L70.4983 241.441C74.718 235.918 80.8553 227.895 88.5163 217.884V217.856H88.5492L101.044 216.013L100.978 216.055C102.784 212.765 104.729 209.273 106.727 205.626H106.755L128.322 193.682L156.139 169.373H156.162H156.195L170.289 166.637L170.219 166.68L177.402 157.716L184.2 149.256L184.247 149.2H184.322L199.667 152.621H199.705L199.728 152.65L243.711 199.182C248.588 208.338 252.924 216.469 256.652 223.463L274.937 240.854L279.794 245.483L281.042 246.682C281.323 246.95 281.459 247.091 281.459 247.091L281.027 246.696L279.766 245.516L274.881 240.91L256.521 223.566L243.543 199.299L199.531 152.814L199.592 152.852L184.27 149.411L184.392 149.369L177.594 157.829L170.392 166.802L170.364 166.84H170.322L156.223 169.57L156.28 169.542L128.5 193.814L106.9 205.734L106.942 205.696L101.175 216.121V216.159H101.128L88.6289 217.987L88.6804 217.954C81.0006 227.952 74.8446 235.956 70.6061 241.455L65.7019 247.815L64.436 249.446C64.15 249.812 64 249.995 64 249.995Z" fill="#263238"/>
<path d="M211.079 193.415C211.079 193.48 204.74 193.537 196.92 193.537C189.099 193.537 182.756 193.48 182.756 193.415C182.756 193.349 189.095 193.292 196.92 193.292C204.745 193.292 211.079 193.363 211.079 193.415Z" fill="#263238"/>
<path d="M220.05 114.163C220.05 114.163 220.011 111.013 219.878 110.991L213.422 112.43C213.356 112.84 212.544 118.006 212.682 118.521L219.928 120.531C219.928 120.531 220.05 114.346 220.05 114.163Z" fill="#FFBE9D"/>
<path d="M220.056 120.049C220.056 120.049 220.056 119.994 220.089 119.911C220.166 119.202 220.089 116.123 219.747 115.996C219.404 115.869 218.278 116.085 218.2 116.494C218.123 116.904 218.377 120.37 218.377 120.37C218.377 120.37 218.449 120.924 219.366 121.046C219.929 121.123 220.056 120.049 220.056 120.049Z" fill="#FFBE9D"/>
<path d="M218.215 121.156C218.215 121.156 218.215 121.101 218.248 121.018C218.32 120.309 218.275 117.231 217.9 117.103C217.524 116.976 216.431 117.192 216.359 117.602C216.287 118.011 216.53 121.477 216.53 121.477C216.53 121.477 216.608 122.031 217.524 122.153C218.088 122.231 218.215 121.156 218.215 121.156Z" fill="#FFBE9D"/>
<path d="M216.416 121.71C216.416 121.71 216.416 121.655 216.444 121.566C216.521 120.863 216.477 117.785 216.101 117.652C215.726 117.519 214.632 117.746 214.56 118.15C214.488 118.554 214.731 122.026 214.731 122.026C214.731 122.026 214.809 122.58 215.72 122.707C216.289 122.785 216.416 121.71 216.416 121.71Z" fill="#FFBE9D"/>
<path d="M214.621 122.23C214.621 122.23 214.621 122.175 214.654 122.086C214.726 121.383 214.682 118.304 214.306 118.171C213.93 118.038 212.837 118.265 212.765 118.67C212.693 119.074 212.942 122.545 212.942 122.545C212.942 122.545 213.014 123.099 213.93 123.227C214.494 123.299 214.621 122.23 214.621 122.23Z" fill="#FFBE9D"/>
<path d="M218.188 117.392C218.295 117.884 218.343 118.388 218.331 118.892C218.381 119.387 218.364 119.886 218.281 120.376C218.174 119.883 218.126 119.38 218.138 118.875C218.087 118.381 218.104 117.882 218.188 117.392Z" fill="#EB996E"/>
<path d="M216.376 117.38C216.554 118.795 216.604 120.224 216.525 121.649C216.408 120.944 216.351 120.231 216.354 119.517C216.297 118.805 216.305 118.09 216.376 117.38Z" fill="#EB996E"/>
<g opacity="0.78">
<path d="M214.538 117.536C214.717 118.951 214.767 120.38 214.687 121.805C214.57 121.1 214.513 120.387 214.516 119.673C214.459 118.961 214.467 118.246 214.538 117.536Z" fill="#EB996E"/>
</g>
<path d="M213.383 112.603C213.383 112.603 210.826 118.422 211.202 118.782C211.684 119.142 212.202 119.45 212.748 119.701L213.383 112.603Z" fill="#FFBE9D"/>
<path d="M199.25 34.532L197.377 56.2975L186.502 55.4283C186.436 54.1548 186.502 49.2325 186.502 49.2325C186.502 49.2325 181.979 48.5237 181.924 43.989C181.896 41.7743 182.211 37.234 182.542 33.1312C182.717 30.9437 183.741 28.9122 185.393 27.4724C187.045 26.0326 189.194 25.2992 191.379 25.4293C192.498 25.4918 193.593 25.7791 194.6 26.274C195.606 26.7689 196.502 27.4615 197.237 28.3105C197.971 29.1595 198.527 30.1477 198.873 31.2164C199.219 32.2852 199.347 33.4127 199.25 34.532Z" fill="#FFBE9D"/>
<g clip-path="url(#clip0_563_1072)">
<path d="M183.889 37.4163C183.888 37.6024 183.961 37.7814 184.091 37.9164C184.221 38.0513 184.398 38.1318 184.587 38.1412C184.772 38.1529 184.955 38.0915 185.095 37.9705C185.235 37.8495 185.321 37.6787 185.334 37.4955C185.336 37.3096 185.264 37.1304 185.133 36.9961C185.003 36.8618 184.824 36.7831 184.636 36.7767C184.544 36.7693 184.452 36.78 184.364 36.8082C184.276 36.8365 184.195 36.8818 184.126 36.9414C184.056 37.001 183.999 37.0737 183.959 37.1552C183.918 37.2368 183.894 37.3256 183.889 37.4163Z" fill="#263238"/>
<path d="M183.012 36.4355C183.099 36.5329 183.63 36.1309 184.426 36.1309C185.223 36.1309 185.773 36.5207 185.859 36.4233C185.946 36.3258 185.81 36.2162 185.557 36.0395C185.226 35.8077 184.83 35.6831 184.423 35.6831C184.017 35.6831 183.621 35.8077 183.29 36.0395C183.049 36.2283 182.95 36.3928 183.012 36.4355Z" fill="#263238"/>
<path d="M191.357 37.4224C191.357 37.6078 191.43 37.7862 191.56 37.9202C191.69 38.0541 191.867 38.1333 192.055 38.1412C192.147 38.1478 192.24 38.1362 192.327 38.1072C192.414 38.0781 192.495 38.0322 192.564 37.972C192.633 37.9119 192.689 37.8388 192.729 37.7569C192.769 37.6751 192.792 37.5862 192.797 37.4955C192.8 37.3101 192.729 37.1309 192.6 36.9964C192.47 36.862 192.293 36.7831 192.105 36.7767C192.012 36.7692 191.919 36.7802 191.831 36.8088C191.743 36.8375 191.662 36.8833 191.592 36.9435C191.523 37.0037 191.466 37.0771 191.426 37.1594C191.385 37.2417 191.362 37.3311 191.357 37.4224Z" fill="#263238"/>
<path d="M190.652 36.5697C190.744 36.661 191.269 36.259 192.066 36.2651C192.863 36.2712 193.413 36.6489 193.499 36.5575C193.586 36.4661 193.45 36.3443 193.203 36.1676C192.864 35.9393 192.464 35.8182 192.054 35.8204C191.649 35.816 191.255 35.9422 190.93 36.1798C190.689 36.3686 190.609 36.5697 190.652 36.5697Z" fill="#263238"/>
<path d="M187.829 42.2648C187.428 42.1423 187.013 42.0667 186.594 42.0394C186.396 42.0394 186.205 41.9846 186.174 41.8506C186.15 41.6391 186.195 41.4255 186.303 41.2414C186.495 40.7663 186.686 40.2668 186.921 39.7491C187.465 38.4864 187.905 37.1827 188.237 35.8506C187.588 37.0656 187.04 38.3307 186.6 39.6333C186.408 40.1572 186.217 40.6567 186.038 41.1318C185.914 41.368 185.879 41.64 185.939 41.8993C185.966 41.9694 186.01 42.032 186.067 42.0818C186.124 42.1316 186.193 42.1672 186.266 42.1856C186.375 42.2179 186.487 42.2344 186.6 42.2343C187.007 42.2949 187.42 42.3052 187.829 42.2648Z" fill="#263238"/>
<path d="M190.121 42.7949C189.992 42.7949 189.992 43.6233 189.269 44.2142C188.546 44.8051 187.651 44.7137 187.645 44.8233C187.638 44.933 187.842 44.9817 188.225 44.9939C188.72 45.0009 189.202 44.8347 189.584 44.5249C189.951 44.2312 190.187 43.8067 190.239 43.3431C190.27 42.9959 190.177 42.7949 190.121 42.7949Z" fill="#263238"/>
<path d="M190.454 33.5724C190.528 33.7856 191.306 33.682 192.221 33.7917C193.135 33.9013 193.87 34.145 193.987 33.9622C194.104 33.7795 193.913 33.6759 193.616 33.4749C193.222 33.2232 192.774 33.0666 192.307 33.0181C191.84 32.9663 191.366 33.0204 190.924 33.1765C190.59 33.3105 190.417 33.4749 190.454 33.5724Z" fill="#263238"/>
<path d="M183.296 34.2185C183.431 34.3951 183.969 34.2185 184.611 34.2185C185.253 34.2185 185.803 34.3342 185.927 34.1515C186.05 33.9687 185.896 33.8895 185.661 33.7251C185.34 33.5279 184.967 33.4284 184.589 33.4393C184.211 33.4501 183.845 33.5707 183.536 33.786C183.314 33.9565 183.234 34.1332 183.296 34.2185Z" fill="#263238"/>
</g>
<path d="M186.519 49.1655C188.606 49.2123 190.66 48.634 192.418 47.5044C192.418 47.5044 191.026 50.7712 186.508 50.3614L186.519 49.1655Z" fill="#EB996E"/>
<path d="M202.447 28.7236C202.474 28.3001 202.345 27.8811 202.083 27.5478C201.821 27.2144 201.444 26.9902 201.027 26.9186C201.206 26.5117 201.25 26.0585 201.155 25.6245C201.059 25.1905 200.828 24.7983 200.495 24.5047C200.162 24.2111 199.745 24.0314 199.303 23.9915C198.862 23.9517 198.419 24.0538 198.039 24.283C197.911 23.7901 197.648 23.3431 197.279 22.9929C196.91 22.6427 196.45 22.4035 195.952 22.3025C195.454 22.2015 194.938 22.2428 194.462 22.4216C193.987 22.6005 193.57 22.9097 193.262 23.3141C192.943 22.9353 192.532 22.6455 192.069 22.4725C191.606 22.2995 191.106 22.2493 190.618 22.3267C190.129 22.4041 189.669 22.6065 189.282 22.9143C188.895 23.2221 188.593 23.6249 188.407 24.0837C188.067 23.796 187.671 23.5836 187.243 23.4604C186.816 23.3371 186.368 23.3058 185.927 23.3686C185.487 23.4313 185.065 23.5867 184.689 23.8244C184.313 24.0622 183.991 24.377 183.745 24.7481C183.25 24.5696 182.725 24.4851 182.199 24.499C181.859 24.5077 181.528 24.6086 181.241 24.7909C180.954 24.9732 180.722 25.2302 180.569 25.5344C180.471 25.7948 180.463 26.0809 180.547 26.3462C180.632 26.6116 180.803 26.8406 181.033 26.9961C180.836 26.9322 180.627 26.9102 180.42 26.9314C180.213 26.9525 180.013 27.0164 179.832 27.119C179.652 27.2216 179.494 27.3607 179.37 27.5275C179.245 27.6942 179.157 27.8851 179.109 28.0879C179.062 28.2907 179.058 28.5012 179.096 28.7059C179.134 28.9107 179.214 29.1052 179.331 29.2774C179.448 29.4495 179.599 29.5955 179.775 29.706C179.951 29.8165 180.148 29.8893 180.354 29.9196C180.209 29.9937 180.088 30.1074 180.005 30.2475C179.922 30.3876 179.88 30.5484 179.884 30.7114C179.946 30.9818 180.076 31.2318 180.261 31.4374C180.447 31.6429 180.683 31.7971 180.945 31.8852C182.282 32.3698 183.75 32.3462 185.071 31.8187C186.407 31.3703 187.644 30.6671 188.97 30.1577C190.296 29.6483 192.51 28.8011 193.841 29.2718C194.037 29.342 194.222 29.4369 194.394 29.5542C195.109 30.1257 195.579 30.9497 195.708 31.8575C195.711 31.887 195.711 31.9166 195.708 31.9461C195.885 33.2417 195.857 34.554 196.045 35.8219C196.168 37.1317 196.726 38.3621 197.63 39.3157C198.022 39.6811 198.735 39.9358 199.039 39.504C199.151 39.3273 199.206 39.1207 199.199 38.9115C199.376 36.658 199.862 34.5872 200.121 32.3835C200.454 31.8269 200.867 31.323 201.347 30.8885C201.959 30.3207 202.348 29.5533 202.447 28.7236Z" fill="#263238"/>
<path d="M188.959 26.4427C188.88 26.2518 188.859 26.042 188.898 25.8392C188.947 25.2699 189.204 24.7391 189.621 24.3497C189.938 24.0634 190.326 23.8685 190.744 23.7856C191.162 23.7027 191.595 23.735 191.996 23.8791C192.24 23.9593 192.465 24.09 192.655 24.2626C192.845 24.4353 192.997 24.646 193.101 24.8813C193.206 25.1483 193.217 25.4429 193.134 25.7173C193.094 25.8642 193.02 25.9996 192.918 26.113C192.816 26.2264 192.69 26.3146 192.549 26.3707C192.405 26.4276 192.25 26.4483 192.097 26.4309C191.944 26.4135 191.798 26.3586 191.671 26.271C191.552 26.1765 191.461 26.0528 191.405 25.9121C191.348 25.7713 191.33 25.6184 191.35 25.4682C191.377 25.1908 191.507 24.9338 191.715 24.7484C191.906 24.5786 192.132 24.4537 192.378 24.3829C192.782 24.2592 193.21 24.2303 193.627 24.2985C194.045 24.3666 194.441 24.53 194.786 24.7761C195.054 24.9701 195.257 25.2401 195.371 25.5512C195.451 25.7866 195.464 26.0396 195.41 26.2821C195.305 26.6808 195.078 26.8026 195.078 26.7915C195.188 26.6233 195.263 26.4351 195.299 26.2378C195.331 26.017 195.304 25.7917 195.222 25.5845C195.104 25.3153 194.912 25.0849 194.67 24.92C194.347 24.7077 193.982 24.5697 193.6 24.5161C193.218 24.4625 192.829 24.4946 192.46 24.61C192.254 24.6591 192.066 24.7666 191.92 24.9198C191.773 25.073 191.673 25.2652 191.632 25.4737C191.616 25.5769 191.628 25.6824 191.665 25.7796C191.703 25.8768 191.766 25.9623 191.847 26.0274C191.935 26.0865 192.036 26.123 192.141 26.1336C192.246 26.1442 192.352 26.1287 192.449 26.0883C192.645 25.9903 192.795 25.8206 192.869 25.6144C192.943 25.4082 192.935 25.1814 192.847 24.9809C192.757 24.7807 192.626 24.6012 192.464 24.4536C192.301 24.306 192.11 24.1933 191.903 24.1227C191.542 23.992 191.154 23.9574 190.777 24.0225C190.399 24.0875 190.045 24.2499 189.749 24.4937C189.352 24.8472 189.087 25.3256 188.997 25.8502C188.948 26.2267 188.997 26.4427 188.959 26.4427Z" fill="#455A64"/>
<path d="M194.455 23.5468C194.586 23.4968 194.724 23.4706 194.864 23.4693C195.243 23.4327 195.625 23.4439 196.002 23.5025C196.581 23.5843 197.118 23.857 197.526 24.2777C197.785 24.5462 197.949 24.893 197.992 25.2644C198.035 25.6357 197.955 26.0109 197.763 26.3319C197.696 26.4369 197.614 26.532 197.52 26.6142L197.371 26.3706C197.549 26.307 197.74 26.2868 197.927 26.3119C198.115 26.3369 198.293 26.4064 198.448 26.5146C198.74 26.6998 198.948 26.9918 199.028 27.3285C199.084 27.6007 199.081 27.8817 199.02 28.1529C198.959 28.424 198.842 28.679 198.675 28.901C198.462 29.1872 198.201 29.4329 197.902 29.6263C197.692 29.7647 197.57 29.8201 197.559 29.8035C197.548 29.7869 197.653 29.7038 197.835 29.5433C198.096 29.3252 198.324 29.0718 198.515 28.7902C198.65 28.5873 198.742 28.3591 198.787 28.1192C198.832 27.8794 198.827 27.633 198.774 27.3949C198.706 27.1253 198.536 26.8928 198.299 26.7471C198.18 26.6659 198.044 26.6135 197.901 26.5943C197.758 26.5751 197.613 26.5895 197.476 26.6364L196.736 26.9354L197.333 26.3817C197.407 26.3168 197.472 26.2423 197.526 26.1602C197.692 25.8868 197.757 25.5632 197.708 25.2466C197.664 24.9468 197.532 24.667 197.327 24.4438C196.962 24.0561 196.485 23.7928 195.963 23.6908C195.074 23.5247 194.455 23.6077 194.455 23.5468Z" fill="#455A64"/>
<path d="M201.006 28.3413C201.039 28.3413 201.122 28.4963 201.122 28.7732C201.116 29.1465 200.976 29.5054 200.728 29.7832C200.479 30.0611 200.138 30.2393 199.768 30.2848C199.492 30.2848 199.327 30.2515 199.332 30.2128C199.771 30.106 200.177 29.8931 200.514 29.5926C200.78 29.2233 200.949 28.7931 201.006 28.3413Z" fill="#455A64"/>
<path d="M181.68 25.983C181.794 25.8365 181.939 25.7173 182.105 25.6342C182.66 25.326 183.298 25.2048 183.927 25.2885C184.556 25.3723 185.141 25.6565 185.596 26.0993C185.768 26.2591 185.906 26.4526 186.001 26.6678C186.096 26.8829 186.146 27.1153 186.148 27.3506C186.132 27.6248 186.01 27.8819 185.808 28.0671C185.606 28.2523 185.339 28.3508 185.065 28.3417C184.923 28.3253 184.789 28.2709 184.675 28.1842C184.561 28.0975 184.473 27.9817 184.419 27.8489C184.314 27.6099 184.296 27.3412 184.369 27.0904C184.44 26.8613 184.567 26.6534 184.737 26.4852C184.908 26.3171 185.117 26.194 185.347 26.1269C185.742 25.9881 186.173 25.9881 186.568 26.1269C186.9 26.2494 187.204 26.4377 187.462 26.6806C187.825 27.0262 188.128 27.4305 188.357 27.8766C188.454 28.0305 188.527 28.1986 188.573 28.3749C188.454 28.2373 188.349 28.089 188.258 27.932C188.005 27.5189 187.692 27.1457 187.33 26.8246C187.081 26.5895 186.776 26.4227 186.444 26.3402C186.112 26.2578 185.765 26.2625 185.435 26.354C185.251 26.4102 185.082 26.5099 184.944 26.6448C184.806 26.7796 184.701 26.9457 184.64 27.1291C184.535 27.4946 184.706 27.9929 185.093 28.0206C185.286 28.0169 185.471 27.941 185.611 27.8078C185.751 27.6746 185.836 27.4938 185.85 27.3008C185.848 27.1053 185.808 26.9121 185.731 26.7324C185.654 26.5528 185.542 26.3902 185.402 26.2543C184.907 25.7559 184.242 25.4649 183.541 25.4404C183.064 25.418 182.589 25.5091 182.155 25.7061C182.002 25.8077 181.843 25.9002 181.68 25.983Z" fill="#455A64"/>
<path d="M197.724 36.5809C197.801 36.5477 200.833 35.6618 200.734 38.7625C200.634 41.8631 197.553 41.1212 197.547 41.0326C197.541 40.944 197.724 36.5809 197.724 36.5809Z" fill="#FFBE9D"/>
<path d="M198.53 39.8922C198.53 39.8922 198.586 39.9309 198.674 39.9752C198.804 40.0262 198.948 40.0262 199.077 39.9752C199.28 39.8539 199.447 39.6809 199.562 39.4737C199.676 39.2665 199.734 39.0326 199.729 38.7959C199.744 38.5299 199.703 38.2638 199.607 38.0152C199.58 37.918 199.531 37.8288 199.463 37.7546C199.394 37.6805 199.31 37.6237 199.215 37.5888C199.153 37.5688 199.086 37.5718 199.027 37.5972C198.967 37.6226 198.918 37.6688 198.889 37.7272C198.845 37.8103 198.862 37.8712 198.845 37.8767C198.829 37.8823 198.784 37.8269 198.812 37.6996C198.832 37.6227 198.877 37.5545 198.939 37.5058C199.026 37.4463 199.133 37.4226 199.237 37.4393C199.364 37.4682 199.481 37.5292 199.578 37.6164C199.675 37.7037 199.748 37.8142 199.79 37.9376C199.91 38.2106 199.963 38.5089 199.944 38.8069C199.951 39.0833 199.876 39.3556 199.729 39.5893C199.581 39.8229 199.368 40.0074 199.116 40.1192C199.033 40.14 198.946 40.1424 198.862 40.1262C198.778 40.1099 198.699 40.0754 198.63 40.0251C198.536 39.9697 198.519 39.8977 198.53 39.8922Z" fill="#EB996E"/>
<path d="M178.542 177.871L180.553 187.151C180.553 187.151 171.821 192.311 172.025 194.061L190.102 190.805L187.562 176.221L178.542 177.871Z" fill="#263238"/>
<path d="M190.103 190.805L189.788 189.344L172.567 193.015C172.567 193.015 171.827 193.513 172.015 194.061L190.103 190.805Z" fill="#455A64"/>
<path d="M199.111 178.89L199.409 188.38C199.409 188.38 189.887 191.874 189.771 193.629L208.147 193.712L208.285 178.906L199.111 178.89Z" fill="#263238"/>
<g opacity="0.6">
<path d="M208.148 193.712L208.104 192.217L190.501 192.699C190.501 192.699 189.684 193.053 189.772 193.629L208.148 193.712Z" fill="#455A64"/>
</g>
<path d="M177.206 186.327C177.206 186.327 167.729 144.56 167.695 143.721L184.677 135.672L191.256 184.689L177.206 186.327Z" fill="#263238"/>
<path d="M198.882 187.404L185.365 117.713V102.688L203.827 104.13C204.062 104.716 210.104 187.505 210.104 187.505L208.199 187.414H198.882" fill="#263238"/>
<path d="M175.184 101.51L167.695 143.919L184.434 140.52L191.256 102.89L175.184 101.51Z" fill="#263238"/>
<path d="M190.754 92.8018C190.754 92.8018 190.754 92.8848 190.754 93.0454L190.831 93.7652C190.903 94.4019 191.008 95.3321 191.146 96.5336C191.428 98.9256 191.853 102.386 192.405 106.661C193.51 115.204 195.167 126.987 196.967 140.009C197.862 146.526 198.685 152.744 199.387 158.386C199.569 159.798 199.712 161.182 199.939 162.517C200.165 163.851 200.342 165.147 200.53 166.393C200.911 168.895 201.264 171.232 201.585 173.358C202.226 177.622 202.728 181.071 203.059 183.457C203.225 184.648 203.347 185.573 203.418 186.226C203.457 186.541 203.479 186.78 203.49 186.946C203.496 187.006 203.496 187.068 203.49 187.128C203.49 187.178 203.463 187.128 203.463 187.128C203.463 187.128 203.501 187.128 203.496 187.128C203.503 187.066 203.503 187.003 203.496 186.94C203.496 186.78 203.496 186.536 203.446 186.22C203.391 185.589 203.28 184.659 203.131 183.452C202.828 181.065 202.347 177.61 201.728 173.347C201.414 171.215 201.071 168.879 200.701 166.376C200.513 165.125 200.318 163.833 200.116 162.5C199.922 161.166 199.784 159.782 199.602 158.37C198.917 152.717 198.1 146.504 197.205 139.993C195.41 126.97 193.714 115.187 192.577 106.65C192.024 102.386 191.56 98.9311 191.245 96.5336L190.886 93.7652C190.848 93.4551 190.815 93.2115 190.793 93.0509C190.77 92.8903 190.754 92.8018 190.754 92.8018Z" fill="#455A64"/>
<path d="M180.835 185.401C180.835 185.401 180.835 185.318 180.808 185.163L180.714 184.471C180.609 183.856 180.46 182.959 180.261 181.808C179.858 179.488 179.272 176.143 178.549 172.018L172.816 139.727C172.646 138.959 172.6 138.168 172.678 137.385C172.777 136.61 172.904 135.829 173.02 135.06C173.259 133.52 173.493 132.003 173.721 130.508C174.191 127.524 174.649 124.65 175.108 121.915C176.014 116.439 176.892 111.522 177.676 107.397C178.46 103.272 179.145 99.9502 179.67 97.6634C179.918 96.5173 180.145 95.6314 180.283 95.0334C180.349 94.7399 180.399 94.4797 180.438 94.3468C180.476 94.2139 180.487 94.1143 180.487 94.1143C180.487 94.1143 180.46 94.1862 180.416 94.3413C180.371 94.4963 180.316 94.7289 180.239 95.0223C180.084 95.6203 179.847 96.5007 179.587 97.6413C179.035 99.928 178.322 103.25 177.516 107.37C176.709 111.489 175.82 116.406 174.903 121.876C174.439 124.617 173.976 127.491 173.501 130.475C173.269 131.965 173.037 133.487 172.794 135.026C172.683 135.802 172.556 136.566 172.451 137.363C172.375 138.168 172.423 138.981 172.595 139.772C174.859 152.368 176.908 163.78 178.394 172.046C179.145 176.166 179.753 179.504 180.172 181.824L180.67 184.482C180.73 184.775 180.775 185.008 180.808 185.169C180.841 185.329 180.835 185.401 180.835 185.401Z" fill="#455A64"/>
<path d="M185.728 115.957C185.667 115.957 186.435 121.156 187.446 127.54C188.456 133.924 189.324 139.079 189.384 139.079C189.445 139.079 188.677 133.88 187.667 127.496C186.656 121.112 185.789 115.946 185.728 115.957Z" fill="#455A64"/>
<path d="M198.58 187.239C198.719 187.278 198.861 187.302 199.005 187.311C199.282 187.345 199.685 187.383 200.176 187.422C201.165 187.5 202.535 187.572 204.042 187.599C205.55 187.627 206.926 187.599 207.909 187.55C208.406 187.55 208.809 187.505 209.085 187.478C209.229 187.479 209.373 187.458 209.51 187.417C208.978 187.372 208.443 187.363 207.909 187.389C206.915 187.389 205.55 187.389 204.042 187.389C202.535 187.389 201.165 187.311 200.176 187.278C199.646 187.229 199.112 187.216 198.58 187.239Z" fill="#455A64"/>
<path d="M177.549 185.827C177.733 185.839 177.919 185.83 178.101 185.8L179.598 185.645C180.863 185.495 182.603 185.285 184.525 185.03C186.447 184.775 188.181 184.543 189.435 184.36L190.926 184.133C191.114 184.117 191.299 184.08 191.478 184.022C191.295 184.003 191.109 184.003 190.926 184.022L189.429 184.177C188.164 184.321 186.425 184.537 184.502 184.787C182.58 185.036 180.846 185.274 179.587 185.462L178.101 185.689C177.913 185.715 177.728 185.762 177.549 185.827Z" fill="#455A64"/>
<path d="M95 34.269C95 34.269 102.302 31.4119 107.289 32.8404C112.276 34.269 113.779 37.3586 117.518 37.1094C120.489 36.899 122.594 35.6089 123.665 32.4418C124.737 29.2747 124.737 25.3213 134.883 25.6978C142.648 25.9858 143.433 27.1264 143.433 27.1264L144.267 47.8399C139.848 47.1423 135.374 46.6384 130.553 47.3194C129.375 47.5748 128.306 48.1922 127.495 49.0855C126.685 49.9787 126.172 51.1034 126.029 52.3026C125.477 56.7322 120.931 58.4486 118.214 58.4486C114.348 58.4486 112.359 55.813 109.062 55.0489C103.887 53.8474 95 57.4796 95 57.4796V34.269Z" fill="#FF5E2C"/>
<path d="M146.431 63.5724L141.969 63.2568L142.085 70.2776L146.873 73.788L147.354 73.6053L147.63 65.6211L146.431 63.5724Z" fill="#EB996E"/>
<path d="M122.898 50.2314C122.821 50.2314 122.688 46.7985 122.605 42.5628C122.522 38.3271 122.522 34.8887 122.605 34.8887C122.688 34.8887 122.815 38.316 122.898 42.5573C122.981 46.7985 122.975 50.2259 122.898 50.2314Z" fill="#263238"/>
<path d="M114.724 41.2344C114.807 41.2344 114.867 44.7835 114.867 49.1521C114.867 53.5208 114.807 57.0754 114.724 57.0754C114.641 57.0754 114.58 53.5263 114.58 49.1521C114.58 44.778 114.646 41.2344 114.724 41.2344Z" fill="#263238"/>
<g opacity="0.2">
<path d="M114.722 53.5817C114.667 55.1708 114.722 57.2803 114.722 57.2803C115.882 58.0555 118.274 58.5261 119.605 58.1109H119.643C120.523 57.8283 121.316 57.3233 121.945 56.6445C122.574 55.9656 123.018 55.1358 123.233 54.235C123.397 53.6348 123.468 53.013 123.443 52.3912C123.001 47.1257 122.433 40.5644 122.598 35.2822C121.498 36.2146 120.186 36.8613 118.778 37.1655C117.37 37.4696 115.909 37.4218 114.523 37.0264L114.722 53.5817Z" fill="black"/>
</g>
<g opacity="0.6">
<path d="M113.995 37.7569C113.756 37.6506 113.528 37.5207 113.315 37.3693L111.509 36.2619C109.56 34.9882 107.4 34.0732 105.13 33.5599C102.842 33.1384 100.486 33.2789 98.2647 33.9697C97.3536 34.293 96.4595 34.6626 95.5859 35.077C95.794 34.9173 96.0158 34.7765 96.2487 34.6562C96.8754 34.3143 97.5294 34.0254 98.2039 33.7925C100.45 33.0295 102.854 32.8579 105.185 33.2942C107.489 33.8096 109.673 34.7625 111.62 36.1014C112.376 36.5886 112.967 37.0094 113.376 37.3029C113.596 37.4341 113.803 37.5861 113.995 37.7569Z" fill="white"/>
</g>
<g opacity="0.6">
<path d="M131.939 27.1824C131.939 27.2322 131.387 27.1824 130.525 27.271C129.403 27.403 128.33 27.8107 127.402 28.4578C126.475 29.1049 125.72 29.9715 125.207 30.9807C124.809 31.7558 124.687 32.2929 124.654 32.2763C124.686 31.793 124.817 31.3215 125.041 30.8921C125.524 29.8161 126.289 28.8918 127.255 28.2179C128.221 27.544 129.351 27.1459 130.525 27.0661C131 27.0079 131.481 27.0475 131.939 27.1824Z" fill="white"/>
</g>
<path d="M144.001 26.5L149.724 151.141L148.703 151.379L142.824 26.5775L144.001 26.5Z" fill="#263238"/>
<path d="M153.723 72.8639L151.513 64.8963L143.66 59.3594C143.66 59.3594 142.743 59.9131 144.146 61.9894L145.907 64.4256C145.907 64.4256 145.852 67.5983 147.36 69.4587L146.874 73.7553L153.723 72.8639Z" fill="#FFBE9D"/>
<path d="M141.946 64.7079C142.8 65.2642 143.549 65.9693 144.155 66.7898C144.273 67.0228 144.33 67.2818 144.321 67.5428C144.327 67.655 144.301 67.7666 144.246 67.8646C144.192 67.9627 144.11 68.0431 144.012 68.0965C143.929 68.1298 143.84 68.1426 143.751 68.1339C143.663 68.1253 143.578 68.0953 143.504 68.0466C143.35 67.9541 143.213 67.8383 143.095 67.7033L141.581 66.1364C141.326 65.9065 141.143 65.6061 141.057 65.2726C141.055 65.1692 141.079 65.0669 141.128 64.9757C141.177 64.8844 141.248 64.8073 141.335 64.7517C141.422 64.6961 141.522 64.6639 141.625 64.6582C141.728 64.6524 141.831 64.6734 141.924 64.719" fill="#FFBE9D"/>
<path d="M141.935 66.7395C142.787 67.299 143.535 68.0036 144.145 68.8214C144.261 69.0548 144.318 69.3135 144.31 69.5744C144.317 69.6866 144.291 69.7982 144.236 69.8963C144.181 69.9943 144.1 70.0747 144.001 70.1281C143.917 70.1581 143.828 70.1692 143.739 70.1606C143.65 70.152 143.564 70.1239 143.488 70.0783C143.336 69.9856 143.2 69.8698 143.084 69.735L141.588 68.2068C141.335 67.9752 141.155 67.6752 141.068 67.343C141.068 67.2401 141.093 67.1387 141.143 67.0484C141.192 66.958 141.263 66.8816 141.35 66.8263C141.436 66.771 141.535 66.7386 141.638 66.7322C141.74 66.7257 141.843 66.7454 141.935 66.7894" fill="#FFBE9D"/>
<path d="M142.26 68.955C143.115 69.5113 143.863 70.2164 144.47 71.0368C144.59 71.2689 144.647 71.5286 144.635 71.7898C144.641 71.9014 144.616 72.0123 144.562 72.1102C144.509 72.2081 144.429 72.2889 144.332 72.3435C144.248 72.3751 144.158 72.387 144.069 72.3784C143.98 72.3698 143.894 72.3408 143.818 72.2937C143.666 72.1997 143.528 72.0841 143.409 71.9504L141.896 70.3835C141.644 70.1506 141.462 69.8513 141.371 69.5197C141.369 69.4162 141.394 69.314 141.442 69.2227C141.491 69.1315 141.563 69.0544 141.65 68.9988C141.737 68.9432 141.837 68.911 141.94 68.9052C142.043 68.8995 142.146 68.9204 142.238 68.966" fill="#FFBE9D"/>
<path d="M142.305 63.3067C142.651 63.4635 142.962 63.6875 143.222 63.9656C143.354 64.1135 143.442 64.2961 143.475 64.492C143.508 64.688 143.486 64.8895 143.409 65.073C143.378 65.1443 143.329 65.2065 143.267 65.2539C143.205 65.3013 143.133 65.3324 143.056 65.3443C142.947 65.3495 142.84 65.3225 142.747 65.2668C142.532 65.1678 142.33 65.0433 142.145 64.8958C141.962 64.7255 141.794 64.5403 141.642 64.3421C141.537 64.2608 141.465 64.1446 141.439 64.0145C141.412 63.8844 141.434 63.7492 141.498 63.6334C141.614 63.3676 141.73 63.2126 142.305 63.279" fill="#FFBE9D"/>
<path d="M153.263 68.8823L165.187 79.6184L161.31 88.1895L147.629 73.5555L153.263 68.8823Z" fill="#FFBE9D"/>
<path d="M152.789 68.4174L163.399 76.5124C163.399 76.5124 173.268 59.6359 174.141 58.5894C175.014 57.5429 177.229 56.4189 177.229 56.4189L176.002 78.0516C176.002 78.0516 170.667 91.7111 163.338 90.9692C157.726 90.4155 148.033 75.5655 148.033 75.5655L152.789 68.4174Z" fill="#FFD6DB"/>
<g opacity="0.2">
<path d="M163.199 76.2466C162.472 77.3841 162 78.6662 161.815 80.0045C161.63 81.3428 161.737 82.7054 162.128 83.9982C162.183 84.2723 162.336 84.5166 162.559 84.6848C162.748 84.7678 162.961 84.7776 163.157 84.7121C163.353 84.6466 163.517 84.5106 163.619 84.3304C163.809 83.961 163.904 83.5499 163.895 83.1345C164.07 83.5346 164.337 83.8875 164.674 84.1643C164.849 84.2953 165.063 84.3622 165.281 84.3542C165.499 84.3461 165.708 84.2635 165.873 84.1201C166.226 83.7325 166.027 83.1179 165.817 82.6362C164.911 80.5838 164.008 78.5315 163.105 76.4791" fill="black"/>
</g>
<path d="M155.455 70.8369C154.728 72.2452 153.917 73.6079 153.025 74.9176C152.215 76.2782 151.324 77.5891 150.357 78.8433C151.082 77.4336 151.893 76.0707 152.788 74.7626C153.597 73.4015 154.488 72.0906 155.455 70.8369Z" fill="#263238"/>
<path d="M152.755 70.5433C152.755 70.5156 152.866 70.3772 153.109 70.4658C153.18 70.4934 153.242 70.5383 153.291 70.5962C153.341 70.6542 153.375 70.7235 153.39 70.798C153.403 70.8967 153.386 70.997 153.34 71.0854C153.295 71.1738 153.223 71.2461 153.135 71.2925C153.047 71.339 152.948 71.3573 152.849 71.3451C152.75 71.3329 152.658 71.2908 152.584 71.2243C152.532 71.1688 152.495 71.1013 152.476 71.0278C152.457 70.9544 152.456 70.8773 152.474 70.8035C152.534 70.5488 152.728 70.5156 152.733 70.5543C152.739 70.5931 152.667 70.6706 152.678 70.8256C152.689 70.9807 152.811 71.1357 152.998 71.0361C153.034 71.0183 153.065 70.9907 153.086 70.9564C153.107 70.9222 153.119 70.8826 153.119 70.8423C153.119 70.8019 153.107 70.7624 153.086 70.7281C153.065 70.6939 153.034 70.6663 152.998 70.6485C152.893 70.5543 152.777 70.5765 152.755 70.5433Z" fill="#263238"/>
<path d="M163.409 81.6278C162.795 79.9826 162.768 78.1749 163.332 76.5117C163.415 76.5117 163.188 77.6634 163.216 79.0753C163.243 80.4872 163.492 81.6057 163.409 81.6278Z" fill="#263238"/>
<path d="M165.464 81.5571C164.382 80.0642 163.644 78.3489 163.305 76.5352C163.702 77.3562 164.058 78.1971 164.371 79.0544C164.962 80.4331 165.536 81.4962 165.464 81.5571Z" fill="#263238"/>
<path d="M199.425 54.3647L197.834 51.1699H186.236L184.413 54.78L177.233 56.4078L174.146 102.741C174.13 103.321 174.271 103.895 174.554 104.402L202.722 105.509L203.866 105.98C204.877 105.354 204.247 102.774 204.258 101.55L204.622 78.6053L210.195 60.267L199.425 54.3647Z" fill="#FFD6DB"/>
<g opacity="0.2">
<path d="M187.402 55.954L189.451 53.8998L191.76 59.4699C194.411 57.9084 196.934 56.1384 199.305 54.1766L191.501 56.6849C190.838 54.9352 190.179 53.1818 189.523 51.4248C189.057 53.0188 188.396 54.5493 187.557 55.9817" fill="black"/>
</g>
<path d="M220.099 112.447L212.504 112.84V90.9917L204.65 78.6112L210.223 60.2729C211.372 60.727 220.027 82.5091 222.231 88.4281C222.55 89.2796 222.689 90.1885 222.639 91.0969L220.099 112.447Z" fill="#FFD6DB"/>
<path d="M177.229 65.9929C177.312 65.9929 176.931 70.4833 176.39 75.998C175.848 81.5128 175.34 85.9645 175.285 85.9645C175.23 85.9645 175.583 81.474 176.124 75.9537C176.666 70.4335 177.152 65.9596 177.229 65.9929Z" fill="#263238"/>
<path d="M189.512 51.4355C189.141 52.709 188.68 53.9543 188.131 55.1619L187.977 55.5384C187.925 55.6847 187.837 55.8159 187.723 55.9204C187.652 55.9759 187.566 56.0088 187.477 56.0147C187.387 56.0206 187.298 55.9994 187.22 55.9537C187.088 55.8872 186.994 55.8152 186.894 55.7543L185.85 55.0456C185.516 54.8466 185.208 54.6067 184.934 54.3313C185.297 54.4749 185.641 54.6607 185.961 54.885L187.038 55.5384C187.242 55.6713 187.452 55.8208 187.546 55.71C187.687 55.5131 187.796 55.2943 187.866 55.0622C188.325 53.8142 188.875 52.602 189.512 51.4355Z" fill="#263238"/>
<path d="M198.736 54.2762C198.165 54.5611 197.572 54.7999 196.963 54.9905C195.858 55.4002 194.323 55.9428 192.622 56.5242L191.694 56.8398L191.567 56.8841L191.517 56.7623C190.92 55.3116 190.412 54.0271 190.042 53.0969C189.825 52.6108 189.649 52.107 189.518 51.5908C189.788 52.0502 190.022 52.5296 190.219 53.0249C190.622 53.9329 191.169 55.2064 191.782 56.6515L191.6 56.574L192.528 56.2529C194.229 55.6992 195.775 55.1455 196.897 54.7967C197.496 54.5778 198.111 54.4038 198.736 54.2762Z" fill="#263238"/>
<path d="M209.013 60.9321C209.013 61.0152 207.406 61.4858 205.512 62.3053C203.617 63.1247 202.198 64.066 202.143 63.9663C202.401 63.6974 202.699 63.4696 203.026 63.2908C204.541 62.3261 206.19 61.591 207.92 61.1093C208.273 60.9939 208.642 60.9341 209.013 60.9321Z" fill="#263238"/>
<path d="M189.511 51.4355C189.518 51.4814 189.518 51.5281 189.511 51.574C189.511 51.6847 189.511 51.8176 189.511 51.9837C189.511 52.3436 189.544 52.8696 189.55 53.5506C189.55 54.9072 189.55 56.8728 189.461 59.3035C189.29 64.1649 188.683 70.8645 187.716 78.212C187.247 81.894 186.727 85.41 186.379 88.5771C186.047 91.3994 185.892 94.2399 185.916 97.0817C185.939 98.9963 186.09 100.907 186.368 102.801C186.451 103.477 186.556 103.992 186.611 104.346C186.611 104.507 186.656 104.64 186.672 104.75C186.678 104.796 186.678 104.843 186.672 104.889C186.654 104.846 186.641 104.802 186.634 104.756C186.606 104.645 186.578 104.518 186.54 104.357C186.473 104.008 186.346 103.493 186.247 102.818C185.921 100.922 185.737 99.0049 185.695 97.0817C185.637 94.2319 185.77 91.3814 186.092 88.5494C186.429 85.3491 186.937 81.8553 187.407 78.1788C188.373 70.8313 189.008 64.1483 189.235 59.2979C189.356 56.8728 189.395 54.9072 189.417 53.5506C189.417 52.8862 189.417 52.3657 189.417 51.9837C189.417 51.8176 189.417 51.6847 189.417 51.5795C189.44 51.5264 189.472 51.4777 189.511 51.4355Z" fill="#263238"/>
<path d="M220.513 109.103C219.171 109.18 217.826 109.161 216.486 109.048C215.143 109.031 213.803 108.918 212.477 108.71C213.816 108.63 215.16 108.646 216.497 108.76C217.842 108.781 219.184 108.895 220.513 109.103Z" fill="#263238"/>
<path d="M213.775 109.955C213.775 109.955 213.775 110.06 213.775 110.16C213.775 110.259 213.896 110.32 213.996 110.237C214.095 110.154 214.062 110.071 213.968 110.005C213.874 109.938 213.797 109.966 213.769 109.938C213.742 109.911 213.819 109.778 214.029 109.811C214.089 109.82 214.147 109.845 214.195 109.883C214.243 109.921 214.281 109.97 214.305 110.027C214.331 110.104 214.333 110.187 214.31 110.266C214.288 110.344 214.242 110.413 214.179 110.465C214.115 110.516 214.038 110.547 213.957 110.553C213.876 110.558 213.795 110.539 213.725 110.498C213.676 110.46 213.636 110.412 213.609 110.356C213.582 110.3 213.569 110.238 213.57 110.176C213.609 109.966 213.758 109.916 213.775 109.955Z" fill="#263238"/>
<g opacity="0.2">
<path d="M204.745 78.5498C203.917 77.0549 203.092 75.5599 202.271 74.0649C201.294 81.9772 201.856 90.0045 203.928 97.702C204.186 91.3493 204.442 84.9985 204.696 78.6495" fill="black"/>
</g>
<g opacity="0.2">
<path d="M170.176 65.0183C170.922 66.0844 171.998 66.8746 173.236 67.2669C174.475 67.6592 175.808 67.6317 177.03 67.1887C177.21 67.4659 177.456 67.6946 177.744 67.8548C178.033 68.0151 178.357 68.1019 178.687 68.1079C179.341 68.1172 179.99 67.9909 180.592 67.7369C182.906 66.8538 184.964 65.4051 186.577 63.5225C188.191 61.6398 189.31 59.3828 189.833 56.9565C186.259 58.2134 183.851 61.6851 180.344 63.1246C178.965 63.7022 177.463 63.9243 175.977 63.7705C174.49 63.6167 173.065 63.092 171.833 62.2443L170.176 65.0183Z" fill="black"/>
</g>
<path d="M192.173 70.3168C192.321 70.2902 192.471 70.2791 192.621 70.2836L193.941 70.2504C195.089 70.2504 196.741 70.2005 198.735 70.1895H198.867V70.3223C198.735 72.072 198.591 74.0985 198.431 76.2579V76.3354L198.359 76.3742L198.066 76.5292L194.857 78.2235L194.775 78.2623L194.703 78.2069L191.726 75.7651L191.682 75.7264V75.6654C191.825 74.0597 191.941 72.7253 192.024 71.7342C192.068 71.3079 192.101 70.9535 192.135 70.6712C192.138 70.5516 192.155 70.4327 192.184 70.3168C192.195 70.4513 192.195 70.5865 192.184 70.721C192.184 71.0089 192.151 71.3743 192.135 71.8284C192.079 72.8029 192.008 74.1206 191.919 75.7042L191.875 75.6045L194.88 78.0131H194.73L197.928 76.3133L198.227 76.1582L198.149 76.2745L198.619 70.3445L198.746 70.4774C196.807 70.4774 195.183 70.4386 194.029 70.4165L192.681 70.3832C192.511 70.3724 192.341 70.3502 192.173 70.3168Z" fill="#263238"/>
<path d="M178.239 104.651C178.239 104.728 177.648 104.651 177.267 104.047C176.886 103.444 177.002 102.89 177.079 102.94C177.156 102.989 177.179 103.438 177.504 103.909C177.83 104.379 178.267 104.573 178.239 104.651Z" fill="#263238"/>
<path d="M178.974 104.341C178.546 104.028 178.26 103.559 178.178 103.035C178.09 102.786 178.051 102.523 178.065 102.259C178.08 101.996 178.146 101.738 178.261 101.501C178.344 101.501 178.261 102.182 178.46 102.963C178.659 103.743 179.056 104.292 178.974 104.341Z" fill="#263238"/>
<path d="M200.243 101.157C200.297 101.959 200.147 102.762 199.805 103.49C199.464 104.217 198.944 104.846 198.293 105.315C198.758 104.697 199.177 104.046 199.547 103.366C199.832 102.648 200.065 101.91 200.243 101.157Z" fill="#263238"/>
<path d="M188.66 53.8008H190.185L190.836 54.9414L190.196 56.7132L188.677 56.536L188.086 55.257L188.66 53.8008Z" fill="#FF8F9D"/>
<path d="M188.678 56.5354C188.678 56.5354 179.509 62.4543 174.826 60.0901C170.142 57.7258 164.332 54.83 159.101 55.5221C156.041 55.8964 153.077 56.835 150.358 58.2906L148.701 62.2827L152.937 63.8109C152.937 63.8109 159.112 60.821 163.603 61.6238C166.74 62.1775 172.766 65.3889 176.825 65.0844C180.885 64.7798 186.491 61.884 190.18 56.6849L188.678 56.5354Z" fill="#FF8F9D"/>
<path d="M189.787 57.1947C189.575 57.1393 189.373 57.0476 189.191 56.9234C188.987 56.8295 188.801 56.7023 188.639 56.5469C188.854 56.6022 189.058 56.696 189.241 56.8237C189.443 56.9141 189.628 57.0397 189.787 57.1947Z" fill="#263238"/>
<path d="M190.693 54.7358C190.381 55.0726 190.041 55.382 189.677 55.6605C189.333 55.9701 188.963 56.2498 188.572 56.4966C188.884 56.1598 189.224 55.8505 189.589 55.5719C189.932 55.2624 190.302 54.9827 190.693 54.7358Z" fill="#263238"/>
<path d="M190.048 55.3169C189.447 54.9321 188.948 54.4056 188.596 53.7832C188.623 53.7832 188.911 54.1376 189.308 54.5584C189.706 54.9792 190.065 55.2892 190.048 55.3169Z" fill="#263238"/>
<path d="M128.233 177.612C127.478 178.689 126.01 178.331 125.33 177.673C124.651 177.015 124.365 176.061 124.102 175.149C123.507 173.067 122.902 170.886 123.347 168.766C123.454 168.122 123.736 167.52 124.163 167.027C124.378 166.785 124.653 166.603 124.96 166.501C125.267 166.399 125.595 166.379 125.912 166.445C126.653 166.642 127.112 167.385 127.445 168.057C128.422 170.095 128.934 172.325 128.945 174.585C129.013 175.643 128.765 176.697 128.233 177.612Z" fill="#50B177"/>
<g opacity="0.2">
<path d="M128.233 177.612C127.478 178.689 126.01 178.331 125.33 177.673C124.651 177.015 124.365 176.061 124.102 175.149C123.507 173.067 122.902 170.886 123.347 168.766C123.454 168.122 123.736 167.52 124.163 167.027C124.378 166.785 124.653 166.603 124.96 166.501C125.267 166.399 125.595 166.379 125.912 166.445C126.653 166.642 127.112 167.385 127.445 168.057C128.422 170.095 128.934 172.325 128.945 174.585C129.013 175.643 128.765 176.697 128.233 177.612Z" fill="black"/>
</g>
<path d="M125.405 183.079C124.141 182.484 122.719 182.311 121.35 182.585C120.601 182.652 119.896 182.968 119.348 183.483C118.846 184.038 118.752 185.011 119.348 185.485C119.718 185.737 120.164 185.852 120.609 185.81C121.683 185.81 122.869 185.608 123.727 186.251C124.196 186.623 124.538 187.234 125.133 187.417C125.426 187.48 125.731 187.448 126.004 187.326C126.277 187.203 126.505 186.996 126.652 186.736C126.932 186.198 126.995 185.574 126.826 184.992C126.753 184.584 126.587 184.199 126.341 183.867C126.094 183.535 125.774 183.265 125.405 183.079Z" fill="#6ACE92"/>
<path d="M130.3 179.159C129.914 178.651 129.657 178.056 129.551 177.427C129.445 176.797 129.493 176.151 129.691 175.544C130.106 174.332 130.846 173.257 131.829 172.437C132.945 171.441 134.245 170.673 135.655 170.177C136.2 169.955 136.787 169.855 137.375 169.885C137.669 169.902 137.954 169.99 138.206 170.142C138.458 170.295 138.668 170.507 138.819 170.759C139.218 171.53 138.819 172.461 138.416 173.222C137.681 174.566 136.841 175.848 135.903 177.058C135.153 178.031 134.29 178.994 133.142 179.431C131.993 179.868 130.797 179.821 130.192 179.022" fill="#6ACE92"/>
<path d="M128.284 193.898C128.245 193.745 128.222 193.587 128.214 193.428C128.181 193.071 128.134 192.62 128.082 192.089C128.016 191.429 127.916 190.774 127.782 190.124C127.608 189.334 127.37 188.559 127.07 187.807C126.779 187.055 126.381 186.349 125.888 185.711C125.492 185.188 124.982 184.762 124.397 184.465C124.002 184.268 123.578 184.135 123.141 184.07C122.982 184.063 122.825 184.039 122.672 184C122.837 183.982 123.004 183.982 123.169 184C123.622 184.032 124.065 184.146 124.477 184.338C125.092 184.628 125.631 185.058 126.052 185.593C126.566 186.242 126.978 186.964 127.276 187.737C127.579 188.498 127.816 189.284 127.984 190.087C128.111 190.744 128.199 191.407 128.247 192.075C128.289 192.644 128.303 193.104 128.312 193.424C128.315 193.583 128.305 193.741 128.284 193.898Z" fill="#263238"/>
<path d="M128.19 192.869C128.178 192.793 128.178 192.715 128.19 192.639V191.99C128.19 191.426 128.19 190.608 128.162 189.598C128.115 187.577 127.942 184.789 127.604 181.725C127.266 178.66 126.821 175.906 126.413 173.927C126.315 173.457 126.221 172.987 126.127 172.597C126.033 172.207 125.968 171.864 125.893 171.591C125.818 171.319 125.785 171.121 125.743 170.961C125.719 170.889 125.706 170.813 125.705 170.736C125.737 170.804 125.762 170.874 125.78 170.947C125.832 171.112 125.893 171.319 125.972 171.572C126.052 171.826 126.141 172.179 126.24 172.569C126.338 172.959 126.446 173.401 126.554 173.899C127.111 176.477 127.529 179.083 127.806 181.706C128.143 184.775 128.274 187.572 128.307 189.593C128.307 190.608 128.307 191.426 128.27 191.99C128.27 192.258 128.242 192.46 128.232 192.643C128.224 192.72 128.21 192.795 128.19 192.869Z" fill="#263238"/>
<path d="M128.176 187.478C128.16 187.251 128.16 187.023 128.176 186.797C128.176 186.359 128.261 185.73 128.383 184.954C128.533 184.049 128.733 183.153 128.983 182.27C129.279 181.185 129.654 180.124 130.103 179.093C130.878 177.197 131.99 175.458 133.385 173.96C133.627 173.704 133.886 173.464 134.159 173.241C134.276 173.138 134.384 173.039 134.492 172.959L134.792 172.752C134.971 172.615 135.16 172.492 135.359 172.386C134.7 172.904 134.074 173.463 133.484 174.059C132.133 175.569 131.048 177.298 130.277 179.173C129.835 180.197 129.459 181.249 129.152 182.322C128.856 183.309 128.683 184.202 128.514 184.978C128.345 185.753 128.294 186.388 128.247 186.801C128.24 187.028 128.217 187.255 128.176 187.478Z" fill="#263238"/>
</g>
<defs>
<clipPath id="clip0_563_1072">
<rect width="11" height="12" fill="white" transform="translate(183 33)"/>
</clipPath>
</defs>
</svg>
