<svg xmlns="http://www.w3.org/2000/svg" width="307.58" height="26.592" viewBox="0 0 307.58 26.592">
  <g id="logo" transform="translate(0 -7.627)">
    <path id="パス_1" data-name="パス 1" d="M17.917,14.531A6.823,6.823,0,0,0,12.439,11.9a7.1,7.1,0,0,0-5.725,2.842,10,10,0,0,0-.041,12.727,7.173,7.173,0,0,0,5.725,2.76,7.018,7.018,0,0,0,5.519-2.636v5.149a13.007,13.007,0,0,1-5.643,1.483,11.424,11.424,0,0,1-8.732-3.831A13,13,0,0,1,0,21.245a13.562,13.562,0,0,1,3.542-9.432A11.4,11.4,0,0,1,12.357,7.9a12.07,12.07,0,0,1,5.56,1.442Z" fill="#d10b26"/>
    <path id="パス_2" data-name="パス 2" d="M25.223,33.561h-4.49L30.454,7.9h3.789l9.474,25.661H39.186L32.371,14.449Z" fill="#d10b26"/>
    <path id="パス_3" data-name="パス 3" d="M63.485,33.561H58.254L51.169,22.44l-.041,11.121H46.886v-25h6.632q8.361,0,8.361,7.538A7.451,7.451,0,0,1,60.4,20.833a5.541,5.541,0,0,1-3.954,2.183ZM51.128,20.71H52.4q5.231,0,5.231-4.49,0-4.325-5.19-4.325H51.128Z" fill="#d10b26"/>
    <path id="パス_4" data-name="パス 4" d="M71.279,12.142V29.977H79.97v3.583H67.036v-25H79.97v3.583Z" fill="#d10b26"/>
    <path id="パス_5" data-name="パス 5" d="M89.1,12.142V29.977h8.691v3.583H84.854v-25H97.787v3.583Z" fill="#d10b26"/>
    <path id="パス_6" data-name="パス 6" d="M119.271,33.561h-5.232L106.955,22.44l-.041,11.121h-4.243v-25H109.3q8.361,0,8.361,7.538a7.448,7.448,0,0,1-1.483,4.737,5.541,5.541,0,0,1-3.954,2.183ZM106.914,20.71h1.277q5.23,0,5.231-4.49,0-4.325-5.19-4.325h-1.318Z" fill="#d10b26"/>
    <path id="パス_7" data-name="パス 7" d="M146.093,27.053l3.973-13.279h4.7l4.585,13.279,5.519-18.494h4.449l-8.485,25.5h-3.213l-5.313-17.176-5.108,17.176h-3.254L136,8.559h4.448Z" fill="#d10b26"/>
    <path id="パス_8" data-name="パス 8" d="M171.059,21.122a13.45,13.45,0,0,1,3.5-9.35,11.55,11.55,0,0,1,8.9-3.872,11.423,11.423,0,0,1,8.856,3.872,13.4,13.4,0,0,1,3.5,9.309,13.4,13.4,0,0,1-3.5,9.309,11.4,11.4,0,0,1-8.856,3.831,11.525,11.525,0,0,1-8.9-3.831A13.248,13.248,0,0,1,171.059,21.122Zm4.407-.288a9.876,9.876,0,0,0,2.307,6.467,7.468,7.468,0,0,0,11.492.124,10.091,10.091,0,0,0,2.183-6.59,9.149,9.149,0,0,0-2.183-6.22,7.928,7.928,0,0,0-11.657,0A9.355,9.355,0,0,0,175.466,20.833Z" fill="#d10b26"/>
    <path id="パス_9" data-name="パス 9" d="M216.445,33.561h-5.231L204.129,22.44l-.041,11.121h-4.242v-25h6.631q8.361,0,8.362,7.538a7.454,7.454,0,0,1-1.483,4.737,5.541,5.541,0,0,1-3.954,2.183ZM204.088,20.71h1.277q5.23,0,5.231-4.49,0-4.325-5.19-4.325h-1.318Z" fill="#d10b26"/>
    <path id="パス_10" data-name="パス 10" d="M233.342,8.559H238.7l-9.515,11.533,10.051,13.469h-5.643l-9.021-12.4-.041,12.4h-4.242v-25h4.242v11.7Z" fill="#d10b26"/>
    <path id="パス_11" data-name="パス 11" d="M241,21.122a13.45,13.45,0,0,1,3.5-9.35A11.548,11.548,0,0,1,253.4,7.9a11.422,11.422,0,0,1,8.855,3.872,13.4,13.4,0,0,1,3.5,9.309,13.4,13.4,0,0,1-3.5,9.309A11.4,11.4,0,0,1,253.4,34.22a11.525,11.525,0,0,1-8.9-3.831A13.248,13.248,0,0,1,241,21.122Zm4.407-.288a9.875,9.875,0,0,0,2.307,6.467,7.467,7.467,0,0,0,11.491.124,10.086,10.086,0,0,0,2.183-6.59,9.144,9.144,0,0,0-2.183-6.22,7.927,7.927,0,0,0-11.656,0A9.355,9.355,0,0,0,245.411,20.833Z" fill="#d10b26"/>
    <path id="パス_12" data-name="パス 12" d="M269.667,8.559h4.242v14q0,8.073,5.066,8.073t5.067-8.073v-9h4.2v9.952q0,10.709-9.309,10.709-9.267,0-9.267-10.709Z" fill="#d10b26"/>
    <path id="パス_13" data-name="パス 13" d="M300.94,33.561h-3.831V12.142h-5.561V8.559h9.392Z" fill="#d10b26"/>
    <circle id="楕円形_1" data-name="楕円形 1" cx="2.288" cy="2.288" r="2.288" transform="translate(29.934 24.409)" fill="#d10b26"/>
    <circle id="楕円形_2" data-name="楕円形 2" cx="2.288" cy="2.288" r="2.288" transform="translate(72.649 18.306)" fill="#d10b26"/>
    <circle id="楕円形_3" data-name="楕円形 3" cx="2.288" cy="2.288" r="2.288" transform="translate(90.955 18.306)" fill="#d10b26"/>
    <circle id="楕円形_4" data-name="楕円形 4" cx="2.288" cy="2.288" r="2.288" transform="translate(303.004 8.627)" fill="#d10b26"/>
    <circle id="楕円形_5" data-name="楕円形 5" cx="2.288" cy="2.288" r="2.288" transform="translate(284 7.627)" fill="#d10b26"/>
    <circle id="楕円形_6" data-name="楕円形 6" cx="2.288" cy="2.288" r="2.288" transform="translate(150 7.627)" fill="#d10b26"/>
  </g>
</svg>
